<?xml version="1.0" encoding="UTF-8"?>
<svg width="520" height="64" version="1.1" xmlns="http://www.w3.org/2000/svg" xmlns:cc="http://creativecommons.org/ns#" xmlns:dc="http://purl.org/dc/elements/1.1/" xmlns:rdf="http://www.w3.org/1999/02/22-rdf-syntax-ns#">
 <metadata>
  <rdf:RDF>
   <cc:Work rdf:about="">
    <dc:format>image/svg+xml</dc:format>
    <dc:type rdf:resource="http://purl.org/dc/dcmitype/StillImage"/>
   </cc:Work>
  </rdf:RDF>
 </metadata>
 <g fill="#fff">
  <path d="m304 10c-0.01433 43.789-0.12924 0.089752-0.14355 44-0.0018 5.5228 4.4757 9.9999 9.9985 9.9999h44.136c5.5228 0 10-4.4772 10-10 9.8e-4 -43.789 9e-3 -0.0897 0.01-44-8e-5 -5.5228-4.4772-9.9998-10-9.9998h-44c-5.5228 0-9.9997 4.4772-10.001 10zm34 9.9336c9.4e-4 4.5809 2e-3 3.7192 2e-3 24.054 0 1.1112-0.90084 2.0121-2.0121 2.0121-1.0979 0-1.988-0.90084-1.9884-2.0121-7.4e-4 -2.7431-2e-3 -4.1226-2e-3 -24.054a2 2 0 0 1 4 0z"/>
  <g stroke-width="0">
   <path d="m76 55v-46a9 9 135 0 1 9-9h1a9 9 45 0 1 9 9v32.996a2.0037 2.0037 45 0 0 2.0037 2.0037 2 2 134.89 0 0 1.9963-2.0037v-32.996a9 9 135 0 1 9-9 9 9 45 0 1 9 9v32.993a2.0074 2.0074 45 0 0 2.0074 2.0074 2 2 134.79 0 0 1.9926-2.0074v-32.993a9 9 135 0 1 9-9h1a9 9 45 0 1 9 9v46a9 9 135 0 1-9 9h-46a9 9 45 0 1-9-9z"/>
   <path d="m228 54a9.5132 9.5132 138.01 0 1 10-9.0002h32.003a1.9966 1.9966 135 0 0 1.9966-1.9966v-0.0068a1.9966 1.9966 45 0 0-1.9966-1.9966h-32.003a10 10 45 0 1-10-10v-21a10 10 135 0 1 10-10h44a10 10 45 0 1 10 10 9.5131 9.5131 138.01 0 1-10 9h-31.999a2.0013 2.0013 135 0 0-2.0013 2.0013 2 2 44.962 0 0 2.0013 1.9987h31.999a10 10 45 0 1 10 10v21a10 10 135 0 1-10 10l-44 1.38e-4a10 10 45 0 1-10-10z"/>
   <path transform="rotate(90,146,70)" d="m76 55v-46a9 9 135 0 1 9-9h1a9 9 45 0 1 9 9v33.005a1.9948 1.9948 45 0 0 1.9948 1.9948h0.0104a1.9948 1.9948 135 0 0 1.9948-1.9948v-33.005a9 9 135 0 1 9-9 9 9 45 0 1 9 9v32.996a2.0042 2.0042 45 0 0 2.0042 2.0042 2 2 134.88 0 0 1.9958-2.0042v-32.996a9 9 135 0 1 9-9h1a9 9 45 0 1 9 9v46a9 9 135 0 1-9 9h-46a9 9 45 0 1-9-9z"/>
   <path transform="rotate(180,260,32)" d="m76 55v-46a9 9 135 0 1 9-9h1a9 9 45 0 1 9 9v32.996a2.0037 2.0037 45 0 0 2.0037 2.0037 2 2 134.89 0 0 1.9963-2.0037v-32.996a9 9 135 0 1 9-9 9 9 45 0 1 9 9v32.993a2.0074 2.0074 45 0 0 2.0074 2.0074 2 2 134.79 0 0 1.9926-2.0074v-32.993a9 9 135 0 1 9-9h1a9 9 45 0 1 9 9v46a9 9 135 0 1-9 9h-46a9 9 45 0 1-9-9z"/>
   <path transform="rotate(90,298,222)" d="m76 55v-46a9 9 135 0 1 9-9h1a9 9 45 0 1 9 9v33.005a1.9948 1.9948 45 0 0 1.9948 1.9948h0.0104a1.9948 1.9948 135 0 0 1.9948-1.9948v-33.005a9 9 135 0 1 9-9 9 9 45 0 1 9 9v32.996a2.0042 2.0042 45 0 0 2.0042 2.0042 2 2 134.88 0 0 1.9958-2.0042v-32.996a9 9 135 0 1 9-9h1a9 9 45 0 1 9 9v46a9 9 135 0 1-9 9h-46a9 9 45 0 1-9-9z"/>
  </g>
  <path d="m0 54v-21a10 10 135 0 1 10-10h31.988a2.0124 2.0124 135 0 0 2.0124-2.0124 2 2 44.644 0 0-2.0124-1.9876h-31.988a10 10 45 0 1-10-10 9.5131 9.5131 138.01 0 1 10-9h44a10 10 45 0 1 10 10v44a10 10 135 0 1-10 10 9.5131 9.5131 48.013 0 1-9-9.9999v-3.0001a10 10 45 0 0-10-10h-13.004a1.9964 1.9964 135 0 0-1.9964 1.9964v0.0072a1.9964 1.9964 45 0 0 1.9964 1.9964h11.504a7.5 7.5 45 0 1 7.5 7.5v1.5a10 10 135 0 1-10 10h-21a10 10 45 0 1-10-10z"/>
 </g>
</svg>
