<?xml version="1.0" encoding="UTF-8" standalone="no"?>
<svg
   width="16"
   height="16"
   version="1.1"
   viewBox="0 0 4.23 4.23"
   id="svg2739"
   sodipodi:docname="chat.svg"
   inkscape:version="1.2.2 (b0a8486541, 2022-12-01)"
   xmlns:inkscape="http://www.inkscape.org/namespaces/inkscape"
   xmlns:sodipodi="http://sodipodi.sourceforge.net/DTD/sodipodi-0.dtd"
   xmlns="http://www.w3.org/2000/svg"
   xmlns:svg="http://www.w3.org/2000/svg">
  <defs
     id="defs2743" />
  <sodipodi:namedview
     id="namedview2741"
     pagecolor="#ffffff"
     bordercolor="#000000"
     borderopacity="0.25"
     inkscape:showpageshadow="2"
     inkscape:pageopacity="0.0"
     inkscape:pagecheckerboard="0"
     inkscape:deskcolor="#d1d1d1"
     showgrid="false"
     inkscape:zoom="38.493125"
     inkscape:cx="6.9103249"
     inkscape:cy="8.6508955"
     inkscape:window-width="934"
     inkscape:window-height="1004"
     inkscape:window-x="12"
     inkscape:window-y="56"
     inkscape:window-maximized="0"
     inkscape:current-layer="svg2739" />
  <path
     style="fill:#eb6f92;fill-opacity:1;stroke-width:0.00512757"
     d="M 1.0356472,3.5120062 C 1.0300068,3.5111688 1.0000106,3.5078164 0.96898889,3.504545 0.71810652,3.4780677 0.47333884,3.3842306 0.2793317,3.2401484 0.21357455,3.1913132 0.09694249,3.0763411 0.05435803,3.0183772 0.01775596,2.9685558 0.0195232,2.9830034 0.02822608,2.8047454 0.05330886,2.2909835 0.16946521,1.774607 0.37440072,1.2658158 0.44054371,1.1016034 0.52659303,0.91919183 0.54715502,0.89960287 0.56277972,0.88471755 0.69225792,0.79958627 0.74337612,0.77058847 0.97830301,0.63732154 1.2588961,0.54738064 1.4854173,0.53273566 l 0.054156,-0.003501 0.015802,0.0173829 c 0.00869,0.009561 0.015869,0.0188445 0.015952,0.0206306 8.26e-5,0.001786 -0.047728,0.0187172 -0.1062466,0.0376245 C 1.152931,0.70572784 0.86637263,0.85049838 0.67641999,1.0033074 c -0.0212546,0.017099 -0.0377355,0.031998 -0.036624,0.033109 0.001111,0.00111 0.0341013,-0.013235 0.0733107,-0.031881 C 1.0451099,0.84665016 1.3200094,0.76159424 1.6381358,0.71832441 2.0531274,0.66187955 2.3814752,0.6708924 2.7430555,0.7486535 2.976648,0.79888969 3.2045942,0.87876105 3.4321446,0.9901075 3.4867866,1.0168452 3.5324006,1.0378148 3.5335091,1.0367064 3.537336,1.032879 3.4556232,0.97072956 3.3840709,0.9230468 3.2013248,0.80126382 2.97333,0.69280477 2.7322931,0.61299016 l -0.087746,-0.0290553 0.024181,-0.027571 0.024181,-0.0275709 0.068693,0.006108 c 0.2984303,0.0265373 0.6099243,0.14383012 0.876463,0.33003153 0.051289,0.03583 0.054614,0.0392996 0.075242,0.0785072 C 3.792511,1.0939825 3.8997785,1.3559853 3.9736186,1.5792577 4.117322,2.0137773 4.2066029,2.5183433 4.2069655,2.8980078 l 7.95e-5,0.083007 -0.031833,0.042245 C 4.1361246,3.0751333 4.0501068,3.1620954 3.9916874,3.2087994 3.7712995,3.3849904 3.4984723,3.486617 3.1842721,3.5095563 c -0.036565,0.00268 -0.066703,0.00439 -0.066973,0.00382 C 3.1170285,3.5128221 3.0730303,3.4592796 3.019525,3.3944158 2.9660193,3.3295521 2.9135596,3.2657289 2.9029473,3.2525862 l -0.019294,-0.023896 0.016904,-0.00359 c 0.038982,-0.00828 0.1503607,-0.052002 0.2220077,-0.087149 0.1305407,-0.064038 0.2458799,-0.146947 0.3340863,-0.240149 0.044317,-0.046827 0.077215,-0.088577 0.073035,-0.092686 -0.00112,-0.00112 -0.023963,0.011785 -0.050755,0.028647 C 3.3581218,2.9097916 3.2540514,2.9606229 3.0824962,3.0273937 2.7323417,3.1636769 2.4116326,3.2192054 2.0483413,3.2064505 1.6094857,3.1910424 1.1491053,3.0548332 0.77460085,2.8295979 0.74947174,2.8144857 0.72802505,2.803005 0.72694123,2.8040908 0.72286954,2.8081634 0.79057,2.8883995 0.83280506,2.929558 0.95669094,3.0502855 1.1340812,3.1548935 1.312536,3.2124571 c 0.019741,0.00637 0.03671,0.012274 0.037709,0.013125 0.00177,0.00151 -0.077581,0.1006544 -0.181281,0.2265112 L 1.117688,3.5143243 1.081795,3.5139335 c -0.01974,-2.218e-4 -0.040507,-0.00109 -0.046147,-0.00193 z M 1.5623416,2.6255058 C 1.6790135,2.5846416 1.7677774,2.4841921 1.8026867,2.3535198 1.8181282,2.2957188 1.8181448,2.1960804 1.8027225,2.1381621 1.7654734,1.9982734 1.664705,1.8955289 1.5304571,1.8605574 1.4861924,1.8490265 1.4053078,1.8491744 1.3612475,1.8608671 1.2019258,1.9031471 1.0906223,2.046173 1.0807332,2.2213303 c -0.00349,0.06184 0.00393,0.1152488 0.023822,0.1714653 0.020733,0.058588 0.04393,0.094055 0.095172,0.1455085 0.037385,0.037539 0.054427,0.050416 0.089734,0.067803 0.062892,0.030972 0.092896,0.037187 0.1692096,0.035053 0.053479,-0.0015 0.070649,-0.00409 0.1036708,-0.015654 z m 1.282774,0.00761 C 2.9718872,2.6006927 3.0714498,2.4994162 3.1109489,2.3627057 3.1277303,2.3046227 3.1276242,2.1918402 3.1107351,2.1333247 3.0715042,1.9974118 2.9708692,1.8949741 2.8431131,1.8609091 2.7993332,1.8492356 2.718358,1.8490142 2.6739035,1.8604458 c -0.018331,0.00471 -0.052942,0.018176 -0.076913,0.029915 -0.035366,0.017319 -0.052369,0.030126 -0.090169,0.067914 -0.039208,0.039196 -0.050381,0.054284 -0.070555,0.095282 -0.033284,0.067641 -0.044965,0.1165696 -0.04529,0.1897198 -7.173e-4,0.1616439 0.078265,0.296981 0.2130183,0.3650044 0.069245,0.034955 0.163566,0.044669 0.2411208,0.024835 z"
     id="path3225" />
</svg>
