<?xml version="1.0" encoding="UTF-8" standalone="no"?>
<svg
   width="16"
   height="16"
   version="1.1"
   viewBox="0 0 4.23 4.23"
   id="svg2739"
   sodipodi:docname="chat.svg"
   inkscape:version="1.2.2 (b0a8486541, 2022-12-01)"
   xmlns:inkscape="http://www.inkscape.org/namespaces/inkscape"
   xmlns:sodipodi="http://sodipodi.sourceforge.net/DTD/sodipodi-0.dtd"
   xmlns="http://www.w3.org/2000/svg"
   xmlns:svg="http://www.w3.org/2000/svg">
  <defs
     id="defs2743" />
  <sodipodi:namedview
     id="namedview2741"
     pagecolor="#ffffff"
     bordercolor="#000000"
     borderopacity="0.25"
     inkscape:showpageshadow="2"
     inkscape:pageopacity="0.0"
     inkscape:pagecheckerboard="0"
     inkscape:deskcolor="#d1d1d1"
     showgrid="false"
     inkscape:zoom="54.4375"
     inkscape:cx="5.0241102"
     inkscape:cy="8.0183697"
     inkscape:window-width="1920"
     inkscape:window-height="1036"
     inkscape:window-x="0"
     inkscape:window-y="44"
     inkscape:window-maximized="1"
     inkscape:current-layer="svg2739" />
  <g
     transform="translate(0,-292.76665)"
     id="g2737">
    <path
       d="m 1.5689225,293.37332 c -0.052606,2.2e-4 -0.4878035,0.0126 -0.94691378,0.35371 0,0 -0.48971705,0.88082 -0.48971705,1.96567 0,0 0.28566369,0.48973 1.03724403,0.51353 0,0 0.1258297,-0.14963 0.2278541,-0.27887 -0.43190364,-0.12923 -0.59514191,-0.39788 -0.59514191,-0.39788 0,0 0.0340153,0.0238 0.0952301,0.0578 0.003403,0 0.006787,0.004 0.0135928,0.007 0.0102028,0.007 0.0204084,0.0102 0.0306103,0.017 0.08502,0.0476 0.17003811,0.085 0.24825691,0.11563 0.1394334,0.0579 0.3060785,0.10883 0.4999249,0.14623 0.2550611,0.0476 0.5543276,0.0646 0.8808059,0.004 0.1598385,-0.0306 0.3230878,-0.0748 0.4931287,-0.14623 0.1190285,-0.0442 0.2516555,-0.10882 0.3910888,-0.20064 0,0 -0.1700379,0.27546 -0.6155447,0.4013 0.1020247,0.12583 0.2244559,0.27205 0.2244559,0.27205 0.7515804,-0.0238 1.0372441,-0.51353 1.0372441,-0.51013 0,-1.08486 -0.4897172,-1.96568 -0.4897172,-1.96568 -0.4863167,-0.36388 -0.952235,-0.35368 -0.952235,-0.35368 l -0.047602,0.0544 c 0.5781388,0.17343 0.8467972,0.42851 0.8467972,0.42851 -0.3536852,-0.19044 -0.7005607,-0.28568 -1.023638,-0.32309 -0.2448588,-0.0272 -0.4795243,-0.0204 -0.6869739,0.007 -0.020405,0 -0.037404,0.004 -0.05781,0.007 -0.1190285,0.0136 -0.4080954,0.0544 -0.77198279,0.21425 -0.12583014,0.0544 -0.20065493,0.0952 -0.20065493,0.0952 0,0 0.278867,-0.26868 0.89101382,-0.44211 l -0.034009,-0.0408 c 0,0 -0.0018,-3e-5 -0.00531,-2e-5 z m -0.086511,1.25493 c 0.1938464,0 0.3502857,0.16664 0.3468851,0.37409 0,0.20745 -0.1530387,0.37409 -0.3468851,0.37409 -0.1904457,0 -0.3468851,-0.16664 -0.3468851,-0.37409 0,-0.20745 0.1530386,-0.37409 0.3468851,-0.37409 z m 1.2412972,0 c 0.1904457,0 0.3468852,0.16664 0.3468852,0.37409 0,0.20745 -0.1530386,0.37409 -0.3468852,0.37409 -0.1904456,0 -0.3468852,-0.16664 -0.3468852,-0.37409 0,-0.20745 0.1530386,-0.37409 0.3468852,-0.37409 z"
       style="fill:#ea9a97"
       id="path2735" />
  </g>
  <path
     style="fill:#eb6f92;stroke-width:0.0183697;fill-opacity:1"
     d="m 4.1331803,12.986143 c -0.020207,-0.003 -0.1276694,-0.01501 -0.238806,-0.02673 C 2.9955786,12.864557 2.118689,12.528382 1.423651,12.012202 1.1880735,11.837248 0.77023467,11.425356 0.61767424,11.217698 0.48654592,11.039211 0.49287712,11.09097 0.52405551,10.452354 0.61391553,8.6117825 1.0300501,6.7618439 1.7642394,4.93908 2.0011992,4.3507825 2.3094742,3.6972862 2.3831383,3.627108 2.4391144,3.5737808 2.902975,3.2687947 3.0861079,3.164909 3.9277425,2.6874751 4.932978,2.3652584 5.7444989,2.3127922 l 0.1940146,-0.012543 0.056611,0.062275 c 0.031136,0.034251 0.056853,0.067511 0.05715,0.07391 2.958e-4,0.0064 -0.1709885,0.067055 -0.3806326,0.1347913 C 4.5533538,2.9325433 3.5267476,3.4511893 2.846235,3.9986335 2.7700894,4.0598895 2.7110462,4.113266 2.7150282,4.1172479 2.7190101,4.1212297 2.8371973,4.0698326 2.9776667,4.003032 4.1670806,3.4374029 5.1519186,3.1326868 6.2916188,2.977671 7.778342,2.7754551 8.9546605,2.807744 10.250036,3.0863261 c 0.836854,0.1799731 1.65348,0.4661153 2.468688,0.8650182 0.195757,0.095789 0.359171,0.1709134 0.363142,0.1669425 0.01371,-0.013712 -0.279029,-0.2363647 -0.535368,-0.40719 C 11.891803,3.2748046 11.075003,2.8862459 10.211479,2.600307 l -0.3143537,-0.1040919 0.086629,-0.098774 0.086629,-0.098774 0.246094,0.021883 c 1.069138,0.095071 2.185077,0.5152769 3.139962,1.1823506 0.183745,0.1283623 0.195658,0.1407924 0.269559,0.2812551 0.283752,0.5393246 0.668042,1.4779599 0.932577,2.2778416 0.514823,1.5566832 0.834675,3.3643103 0.835974,4.7244726 l 2.85e-4,0.297377 -0.114042,0.151345 c -0.140033,0.185837 -0.448195,0.497382 -0.657485,0.664701 -0.789548,0.631211 -1.766962,0.995292 -2.892596,1.077473 -0.130997,0.0096 -0.238967,0.01573 -0.239935,0.0137 -9.68e-4,-0.002 -0.158593,-0.193818 -0.350278,-0.426195 -0.191686,-0.232377 -0.379625,-0.461026 -0.417644,-0.50811 l -0.06912,-0.08561 0.06056,-0.01286 c 0.139655,-0.02966 0.538673,-0.186299 0.795351,-0.312216 0.467667,-0.229419 0.880874,-0.526443 1.196877,-0.860343 0.158768,-0.16776 0.276626,-0.31733 0.26165,-0.332052 -0.004,-0.004 -0.08585,0.04222 -0.181833,0.102629 -0.432805,0.272377 -0.805641,0.454482 -1.420244,0.693691 -1.254442,0.48824 -2.4033946,0.687173 -3.7048997,0.641478 -1.5722169,-0.0552 -3.2215474,-0.543175 -4.5632239,-1.350089 -0.090026,-0.05414 -0.1668596,-0.09527 -0.1707424,-0.09138 -0.014587,0.01459 0.2279525,0.302039 0.3792612,0.449491 0.4438259,0.432511 1.0793332,0.807273 1.7186546,1.013497 0.070723,0.02281 0.131516,0.04397 0.1350948,0.04702 0.00634,0.0054 -0.2779371,0.360598 -0.6494461,0.811485 l -0.1836969,0.222946 -0.1285878,-0.0014 c -0.070723,-7.95e-4 -0.1451206,-0.0039 -0.1653272,-0.0069 z M 6.020083,9.8102213 C 6.4380648,9.6638237 6.7560648,9.3039596 6.8811285,8.8358209 6.9364484,8.6287469 6.9365077,8.2717884 6.881257,8.0642939 6.7478104,7.5631372 6.3868039,7.1950512 5.9058555,7.0697644 5.7472755,7.0284545 5.4575036,7.0289844 5.2996558,7.0708739 4.7288797,7.2223436 4.3301307,7.7347395 4.2947024,8.362247 c -0.012508,0.221544 0.014076,0.4128834 0.085345,0.6142813 0.074275,0.2098928 0.157382,0.3369543 0.3409589,0.5212896 0.1339318,0.1344852 0.1949866,0.1806187 0.3214742,0.2429083 0.2253125,0.1109567 0.3328027,0.1332237 0.6061998,0.125577 0.19159,-0.00536 0.2531038,-0.014647 0.3714033,-0.056081 z m 4.595587,0.027262 c 0.454164,-0.1161558 0.810851,-0.4789827 0.952358,-0.9687534 0.06012,-0.2080847 0.05974,-0.6121323 -7.66e-4,-0.8217662 -0.140546,-0.4869133 -0.501075,-0.8539 -0.958766,-0.9759392 -0.156843,-0.041821 -0.44694,-0.042614 -0.6062,-0.00166 -0.065671,0.01689 -0.1896668,0.065117 -0.2755451,0.1071732 C 9.600052,7.2385841 9.5391379,7.2844635 9.4037162,7.4198422 9.2632511,7.5602625 9.2232259,7.6143153 9.1509511,7.7611935 9.0317083,8.0035209 8.9898636,8.1788087 8.9886984,8.440872 c -0.00257,0.5790955 0.280386,1.0639458 0.763146,1.3076422 0.2480718,0.1252263 0.5859816,0.160029 0.8638256,0.088969 z"
     id="path3225"
     transform="scale(0.264375)" />
</svg>
