<?xml version="1.0" encoding="UTF-8" standalone="no"?>
<svg
   style="isolation:isolate"
   width="16"
   height="16"
   viewBox="0 0 16 16"
   version="1.1"
   id="svg4018"
   sodipodi:docname="main.svg"
   inkscape:version="1.2.2 (b0a8486541, 2022-12-01)"
   xmlns:inkscape="http://www.inkscape.org/namespaces/inkscape"
   xmlns:sodipodi="http://sodipodi.sourceforge.net/DTD/sodipodi-0.dtd"
   xmlns="http://www.w3.org/2000/svg"
   xmlns:svg="http://www.w3.org/2000/svg">
  <sodipodi:namedview
     id="namedview4020"
     pagecolor="#ffffff"
     bordercolor="#000000"
     borderopacity="0.25"
     inkscape:showpageshadow="2"
     inkscape:pageopacity="0.0"
     inkscape:pagecheckerboard="0"
     inkscape:deskcolor="#d1d1d1"
     showgrid="false"
     inkscape:zoom="54.4375"
     inkscape:cx="5.0241102"
     inkscape:cy="8.0183697"
     inkscape:window-width="1920"
     inkscape:window-height="1036"
     inkscape:window-x="0"
     inkscape:window-y="44"
     inkscape:window-maximized="1"
     inkscape:current-layer="svg4018" />
  <defs
     id="defs4012">
    <style
       id="current-color-scheme"
       type="text/css">
   .ColorScheme-Text { color:#ea9a97; } .ColorScheme-Highlight { color:#5294e2; }
  </style>
    <linearGradient
       id="arrongin"
       x1="0%"
       x2="0%"
       y1="0%"
       y2="100%">
      <stop
         offset="0%"
         style="stop-color:#dd9b44; stop-opacity:1"
         id="stop3959" />
      <stop
         offset="100%"
         style="stop-color:#ad6c16; stop-opacity:1"
         id="stop3961" />
    </linearGradient>
    <linearGradient
       id="aurora"
       x1="0%"
       x2="0%"
       y1="0%"
       y2="100%">
      <stop
         offset="0%"
         style="stop-color:#09D4DF; stop-opacity:1"
         id="stop3964" />
      <stop
         offset="100%"
         style="stop-color:#9269F4; stop-opacity:1"
         id="stop3966" />
    </linearGradient>
    <linearGradient
       id="fitdance"
       x1="0%"
       x2="0%"
       y1="0%"
       y2="100%">
      <stop
         offset="0%"
         style="stop-color:#1AD6AB; stop-opacity:1"
         id="stop3969" />
      <stop
         offset="100%"
         style="stop-color:#329DB6; stop-opacity:1"
         id="stop3971" />
    </linearGradient>
    <linearGradient
       id="oomox"
       x1="0%"
       x2="0%"
       y1="0%"
       y2="100%">
      <stop
         offset="0%"
         style="stop-color:#efefe7; stop-opacity:1"
         id="stop3974" />
      <stop
         offset="100%"
         style="stop-color:#8f8f8b; stop-opacity:1"
         id="stop3976" />
    </linearGradient>
    <linearGradient
       id="rainblue"
       x1="0%"
       x2="0%"
       y1="0%"
       y2="100%">
      <stop
         offset="0%"
         style="stop-color:#00F260; stop-opacity:1"
         id="stop3979" />
      <stop
         offset="100%"
         style="stop-color:#0575E6; stop-opacity:1"
         id="stop3981" />
    </linearGradient>
    <linearGradient
       id="sunrise"
       x1="0%"
       x2="0%"
       y1="0%"
       y2="100%">
      <stop
         offset="0%"
         style="stop-color: #FF8501; stop-opacity:1"
         id="stop3984" />
      <stop
         offset="100%"
         style="stop-color: #FFCB01; stop-opacity:1"
         id="stop3986" />
    </linearGradient>
    <linearGradient
       id="telinkrin"
       x1="0%"
       x2="0%"
       y1="0%"
       y2="100%">
      <stop
         offset="0%"
         style="stop-color: #b2ced6; stop-opacity:1"
         id="stop3989" />
      <stop
         offset="100%"
         style="stop-color: #6da5b7; stop-opacity:1"
         id="stop3991" />
    </linearGradient>
    <linearGradient
       id="60spsycho"
       x1="0%"
       x2="0%"
       y1="0%"
       y2="100%">
      <stop
         offset="0%"
         style="stop-color: #df5940; stop-opacity:1"
         id="stop3994" />
      <stop
         offset="25%"
         style="stop-color: #d8d15f; stop-opacity:1"
         id="stop3996" />
      <stop
         offset="50%"
         style="stop-color: #e9882a; stop-opacity:1"
         id="stop3998" />
      <stop
         offset="100%"
         style="stop-color: #279362; stop-opacity:1"
         id="stop4000" />
    </linearGradient>
    <linearGradient
       id="90ssummer"
       x1="0%"
       x2="0%"
       y1="0%"
       y2="100%">
      <stop
         offset="0%"
         style="stop-color: #f618c7; stop-opacity:1"
         id="stop4003" />
      <stop
         offset="20%"
         style="stop-color: #94ffab; stop-opacity:1"
         id="stop4005" />
      <stop
         offset="50%"
         style="stop-color: #fbfd54; stop-opacity:1"
         id="stop4007" />
      <stop
         offset="100%"
         style="stop-color: #0f83ae; stop-opacity:1"
         id="stop4009" />
    </linearGradient>
  </defs>
  <path
     style="fill:currentColor;"
     class="ColorScheme-Text"
     d="M 3.374407 12.771313 C 3.374407 13.354191 3.532698 13.773633 3.842995 14.037073 C 4.166435 14.30051 4.635595 14.441087 5.251616 14.452517 L 5.251616 15.651416 C 4.217865 15.639987 3.416693 15.387977 2.854388 14.905675 C 2.285225 14.4188 2.004072 13.735919 2.004072 12.856458 L 2.004072 10.262652 C 2.004072 9.668916 1.834352 9.247187 1.488625 8.994606 C 1.149184 8.738027 0.649166 8.608307 0 8.608307 L 0 7.39855 C 0.702883 7.38712 1.214329 7.253401 1.529198 6.989963 C 1.846352 6.726526 2.004644 6.322511 2.004644 5.773349 L 2.004644 3.152684 C 2.004644 2.266366 2.297225 1.578913 2.884103 1.085752 C 3.468695 0.597164 4.261295 0.35144 5.25276 0.35144 L 5.25276 1.543483 C 3.998428 1.579484 3.37555 2.144076 3.37555 3.246401 L 3.37555 5.773349 C 3.37555 7.000822 2.766384 7.724275 1.55377 7.947711 L 1.55377 8.055143 C 2.765813 8.27401 3.37555 9.001464 3.37555 10.229507 L 3.37555 12.771884"
     id="path4014" />
  <path
     style="fill:currentColor;"
     class="ColorScheme-Text"
     d="M 14.428515 7.944855 C 13.216473 7.721417 12.606736 6.998535 12.606736 5.770491 L 12.606736 3.243544 C 12.606736 2.140647 11.990715 1.576056 10.754098 1.540626 L 10.754098 0.348584 C 11.756421 0.348584 12.542163 0.594307 13.115897 1.094325 C 13.687346 1.592057 13.977641 2.274938 13.977641 3.150398 L 13.977641 5.771063 C 13.977641 6.327083 14.135933 6.735669 14.457658 6.99225 C 14.7811 7.251116 15.297118 7.385407 16 7.396263 L 16 8.606021 C 15.337119 8.606021 14.83253 8.73574 14.493088 8.992322 C 14.147362 9.244329 13.977641 9.666632 13.977641 10.260366 L 13.977641 12.854173 C 13.977641 13.726776 13.69649 14.405657 13.140468 14.891959 C 12.582164 15.385121 11.792422 15.6377 10.754098 15.648558 L 10.754098 14.449659 C 11.356977 14.43823 11.820994 14.297654 12.138148 14.034215 C 12.448445 13.770778 12.606736 13.351333 12.606736 12.768455 L 12.606736 10.22608 C 12.606736 9.576342 12.758741 9.077466 13.05761 8.735169 C 13.356477 8.393443 13.814207 8.16372 14.427944 8.052288 L 14.427944 7.944855"
     id="path4016" />
  <path
     style="fill:#eb6f92;stroke-width:0.0183697"
     d="M 4.8049938,15.621361 C 4.3692357,15.582671 3.8993594,15.472196 3.5740473,15.331946 2.7386138,14.971771 2.2291852,14.342562 2.062835,13.465407 2.026305,13.272786 2.0238198,13.180985 2.0118496,11.58209 2.000561,10.074249 1.9959596,9.8871921 1.9671401,9.7645441 1.9214859,9.5702518 1.8530603,9.4095003 1.7511616,9.257149 1.4972998,8.8775943 0.95084995,8.6421268 0.25258324,8.6114056 L 0.00918485,8.6006969 V 8.0089921 7.4172873 L 0.10562572,7.4057034 C 0.1586682,7.3993323 0.23820433,7.3940477 0.28237267,7.3939599 0.5568899,7.3934143 1.0273884,7.2827356 1.2766935,7.1600592 1.4212693,7.0889172 1.478129,7.0472423 1.608155,6.9171161 1.78761,6.737523 1.8861487,6.561596 1.9585032,6.2916188 2.0001545,6.1362054 2.000406,6.1275865 2.0123847,4.445465 2.0238473,2.835782 2.0262451,2.7458289 2.0628282,2.5529628 2.1678009,1.9995462 2.4004844,1.5610383 2.7816332,1.1983258 3.3133711,0.69230823 4.0498913,0.41606818 5.0011481,0.36587236 L 5.2445465,0.35302874 V 0.94153699 1.5300452 L 5.0929966,1.5422785 C 4.4434897,1.5947073 4.002188,1.7814341 3.7046942,2.1297072 3.6018059,2.2501577 3.4747479,2.5119377 3.4232709,2.7095293 3.3832636,2.8630955 3.3823866,2.8926461 3.3701257,4.5005741 3.3592533,5.9264208 3.353697,6.1554425 3.3266735,6.2916188 3.1540787,7.1613573 2.6651279,7.6613096 1.7634902,7.889974 L 1.5614237,7.94122 1.5558537,8.005117 c -0.0055,0.06314 -0.00454,0.064051 0.080898,0.076864 0.1577012,0.023649 0.4548701,0.1216264 0.6417769,0.2115964 0.5076088,0.2443437 0.8561433,0.6589744 0.9929641,1.1812697 0.08694,0.3318834 0.085572,0.3034269 0.098221,2.0429489 l 0.012021,1.653272 0.049165,0.181325 c 0.075714,0.279239 0.1613672,0.435592 0.3344779,0.610559 0.2932401,0.296385 0.6792876,0.43753 1.3551715,0.495473 l 0.1239954,0.01063 v 0.586368 0.586368 l -0.1331803,-0.0025 c -0.073249,-0.0014 -0.2111167,-0.0094 -0.3063724,-0.0179 z"
     id="path4502" />
  <path
     style="fill:#eb6f92;stroke-width:0.0183697"
     d="m 10.755454,15.056671 v -0.58984 l 0.04133,-0.0084 c 0.02273,-0.0046 0.119863,-0.01315 0.215844,-0.01899 0.331372,-0.02013 0.706523,-0.126353 0.949274,-0.268773 0.05884,-0.03452 0.169413,-0.124765 0.245717,-0.20054 0.166896,-0.165741 0.27173,-0.354938 0.343794,-0.620458 l 0.04848,-0.178623 0.01146,-1.653272 c 0.01227,-1.7707314 0.0122,-1.7692741 0.110261,-2.1204638 C 12.904439,8.7425515 13.38215,8.3243469 14.1814,8.1193666 l 0.238806,-0.061246 0.0051,-0.061218 0.0051,-0.061218 -0.212081,-0.051283 C 13.252002,7.650754 12.721804,7.0424988 12.629786,6.0619977 12.618649,5.9433279 12.610817,5.2718038 12.610808,4.4349248 12.610794,3.2086106 12.606666,2.9857747 12.581201,2.8367618 12.473551,2.2068468 12.117596,1.8173325 11.483544,1.6356178 11.321103,1.5890636 10.965493,1.5338691 10.827991,1.5338691 h -0.07254 V 0.94321001 0.35255089 l 0.261768,0.0124306 c 0.610884,0.0290091 1.101589,0.14761973 1.542553,0.37285852 0.739681,0.37781989 1.196977,0.98862359 1.35926,1.81554689 0.03828,0.1950595 0.04006,0.2606711 0.05128,1.8920781 0.01147,1.6676917 0.01216,1.6920736 0.05239,1.8461538 0.06919,0.2649519 0.169006,0.4460666 0.34035,0.6175374 0.126674,0.1267689 0.177899,0.1631318 0.341881,0.2426932 0.286388,0.1389507 0.743683,0.2415182 1.079851,0.2422016 0.06785,1.469e-4 0.141963,0.00524 0.164695,0.011328 l 0.04133,0.011076 V 8.0086016 8.600748 l -0.252583,0.010753 c -0.781426,0.033268 -1.343461,0.3038866 -1.580128,0.7608268 -0.183292,0.3538865 -0.187717,0.404922 -0.187846,2.1664832 -7.4e-5,0.901009 -0.0076,1.546032 -0.01952,1.662457 -0.07973,0.781363 -0.397663,1.371921 -0.97119,1.803952 -0.49726,0.374582 -1.150601,0.579969 -1.999067,0.628437 l -0.225028,0.01286 z"
     id="path4504" />
</svg>
