<?xml version="1.0" encoding="UTF-8" standalone="no"?>
<svg
   width="16"
   height="16"
   version="1.1"
   id="svg5102"
   sodipodi:docname="web.svg"
   inkscape:version="1.2.2 (b0a8486541, 2022-12-01)"
   xmlns:inkscape="http://www.inkscape.org/namespaces/inkscape"
   xmlns:sodipodi="http://sodipodi.sourceforge.net/DTD/sodipodi-0.dtd"
   xmlns="http://www.w3.org/2000/svg"
   xmlns:svg="http://www.w3.org/2000/svg">
  <defs
     id="defs5106" />
  <sodipodi:namedview
     id="namedview5104"
     pagecolor="#ffffff"
     bordercolor="#000000"
     borderopacity="0.25"
     inkscape:showpageshadow="2"
     inkscape:pageopacity="0.0"
     inkscape:pagecheckerboard="0"
     inkscape:deskcolor="#d1d1d1"
     showgrid="false"
     inkscape:zoom="54.4375"
     inkscape:cx="5.0241102"
     inkscape:cy="8.0183697"
     inkscape:window-width="1920"
     inkscape:window-height="1036"
     inkscape:window-x="0"
     inkscape:window-y="44"
     inkscape:window-maximized="1"
     inkscape:current-layer="svg5102" />
  <path
     d="M 7.4134496,15.93721 C 4.146945,15.629591 1.2732042,13.29326 0.41594743,10.248287 0.31415163,9.8867107 0.15744533,8.8540384 0.13166403,8.3748946 c -0.004081,-0.075882 -0.0282042,-0.064442 -0.0774511,0.036732 -0.1271191,0.2611571 -0.0116085,-0.8424416 0.1497362,-1.4305793 0.0828304,-0.3019405 0.1381639,-0.561077 0.1229629,-0.5758594 -0.0152041,-0.014783 -0.0825364,0.06696 -0.1496324,0.1816506 -0.114665,0.1959986 -0.1191089,0.1974918 -0.073966,0.024859 C 0.22584103,6.1431383 0.68208383,5.1741512 0.99722813,4.713169 1.2213075,4.3853945 1.3451221,4.1241086 1.3451221,3.9790121 c 0,-0.6323733 0.3841975,-1.6401286 0.8153416,-2.1386489 l 0.2189389,-0.2531555 0.051856,0.3633539 c 0.034014,0.2383424 0.1485057,0.5023732 0.332775,0.7674196 l 0.2809203,0.4040648 0.8310282,0.044242 c 0.4570658,0.024334 0.887156,0.067938 0.9557558,0.0969 0.083714,0.035344 0.2405819,-0.033336 0.4770559,-0.208868 0.4447931,-0.3301629 1.0707568,-0.5149527 1.5216418,-0.4492 l 0.333446,0.048625 -0.364826,0.2804314 c -0.378927,0.2912709 -0.845502,0.916819 -0.845502,1.1335821 0,0.1859511 0.222821,0.4814799 0.445619,0.5910251 0.108097,0.05315 0.408677,0.1191838 0.667956,0.146744 0.259279,0.027559 0.576369,0.085686 0.704644,0.1291703 0.201699,0.068376 0.226873,0.1051378 0.18622,0.2719349 -0.0881,0.3614624 -0.316275,0.559969 -1.066161,0.9275345 l -0.749409,0.3673317 -0.01441,0.4695082 C 6.1103726,7.5455353 6.0348226,7.6395888 5.7598862,7.429282 5.4984854,7.2293305 5.3383432,7.2316565 5.1461258,7.4381972 4.6995414,7.9180553 4.9750734,8.533652 5.9074382,9.1391319 c 0.3467854,0.2252017 0.8647024,0.2542712 1.4506374,0.081419 0.203973,-0.060172 0.55103,-0.1097615 0.771238,-0.1102 0.624998,-0.0012 1.223905,0.3602919 1.223905,0.738816 0,0.2202051 -0.126517,0.3006261 -0.373953,0.2377021 -0.105962,-0.02694 -0.412374,0.08135 -0.887026,0.313508 -0.665783,0.325638 -0.778472,0.357151 -1.376574,0.38496 -0.358286,0.01666 -0.7849094,-0.0056 -0.9480525,-0.04936 -0.1631427,-0.0438 -0.3090573,-0.06755 -0.3242552,-0.05277 -0.081467,0.07922 0.8259797,0.825515 1.2232397,1.006004 2.002135,0.909632 4.4528694,-0.142353 5.1034584,-2.1906754 0.183942,-0.5791276 0.202117,-1.5267129 0.03929,-2.0486599 -0.06188,-0.1983522 -0.112872,-0.3865982 -0.113322,-0.4183257 -0.0028,-0.1954698 0.90512,0.5818001 1.260282,1.0789614 0.315675,0.4418862 0.269823,0.2467318 -0.07147,-0.3041969 C 12.603503,7.3521863 12.228224,6.9826706 11.208413,6.1556455 9.6849966,4.9202143 9.1725706,3.6618229 9.5702216,2.1326555 9.7825876,1.3160052 10.479135,-0.00113429 10.698039,6.3142477e-6 10.727089,1.5181425e-4 10.816004,0.15430571 10.89563,0.34255601 c 0.102083,0.2413394 0.369364,0.5553959 0.906372,1.06498679 0.418878,0.3974918 0.782268,0.7227128 0.807533,0.7227128 0.02527,0 0.09581,-0.173563 0.156775,-0.3856979 l 0.110838,-0.3856979 0.119129,0.3741277 c 0.172371,0.541329 0.369528,0.8860412 0.815489,1.4257985 0.601689,0.7282374 1.117464,1.4975807 1.367921,2.0404207 0.262167,0.5682238 0.519564,1.4258299 0.519564,1.7311142 0,0.1502472 0.03036,0.2000398 0.104993,0.1721897 0.238782,-0.089104 0.264355,0.9832506 0.04779,2.0039556 -0.09883,0.4658019 -0.26436,0.9259068 -0.502177,1.3958608 -0.268197,0.529987 -0.358947,0.79658 -0.371946,1.092658 -0.0244,0.555791 -0.450925,1.370176 -0.942886,1.800307 -0.20763,0.181533 -0.640547,0.480554 -0.962036,0.664493 -0.321492,0.183941 -0.788839,0.527744 -1.03855,0.764008 -0.703677,0.665783 -1.502877,0.971646 -2.9174294,1.11653 -0.782266,0.08013 -0.820447,0.08006 -1.703561,-0.0032 z"
     style="fill:#ea9a97"
     id="path5100" />
  <path
     style="fill:#eb6f92;stroke-width:0.0183697"
     d="M 7.880597,15.970782 C 7.1909678,15.914877 6.7667031,15.852242 6.2836725,15.735027 3.988288,15.178016 1.9813915,13.609403 0.94686964,11.56372 0.70251933,11.080537 0.52340267,10.620764 0.41371825,10.195178 0.32705058,9.8588993 0.20428091,9.0814407 0.15554827,8.5602755 0.14421147,8.4390356 0.12774597,8.3324243 0.11895828,8.3233617 0.10970739,8.3138214 0.08516958,8.337023 0.06067517,8.3784707 L 0.01836969,8.4500574 0.01277897,8.3416975 C -5.1600459e-6,8.0939143 0.09742878,7.4532625 0.22957845,6.9161883 0.27805491,6.7191734 0.32342146,6.5228473 0.33039302,6.4799082 0.35030128,6.3572894 0.30175758,6.380243 0.19442023,6.5442021 0.14315986,6.6225029 0.10117766,6.6771049 0.10112643,6.6655401 0.10094402,6.6243404 0.17957522,6.3892062 0.26673185,6.1703238 0.45807601,5.6897877 0.74565671,5.1262382 1.0156941,4.7026406 1.112305,4.5510907 1.2237692,4.3580027 1.2633922,4.2735563 1.3265131,4.1390299 1.3376446,4.0946732 1.3532862,3.9153473 1.4200331,3.1501186 1.7492012,2.3438172 2.2227325,1.7856281 L 2.36969,1.6123976 2.4096165,1.8607598 c 0.044579,0.2773062 0.086106,0.4087612 0.1918999,0.6074785 0.064995,0.1220827 0.4091755,0.636382 0.4376634,0.6539887 0.00642,0.00397 0.2510681,0.020293 0.5436548,0.036274 0.6357886,0.034727 0.8911357,0.056074 1.1432087,0.095571 0.1769772,0.027731 0.1939413,0.027582 0.2724214,-0.00239 0.04603,-0.017579 0.1884267,-0.1026045 0.3164366,-0.1889451 0.363105,-0.2449091 0.6623647,-0.3702997 1.0388253,-0.4352708 0.2068754,-0.035703 0.3282919,-0.03546 0.5756829,0.00115 0.1089167,0.016119 0.1996844,0.030862 0.2017062,0.032761 0.00202,0.0019 -0.088872,0.073442 -0.2019861,0.1589824 -0.3705641,0.280232 -0.7431756,0.7010109 -0.9073373,1.0246284 -0.0922,0.1817571 -0.093626,0.2770867 -0.00658,0.4401207 0.06817,0.1276853 0.2638541,0.3256573 0.3731683,0.3775302 0.1083628,0.051422 0.3312674,0.1019558 0.6280832,0.1423915 0.42853,0.05838 0.7232792,0.1209694 0.8364492,0.1776202 0.088488,0.044295 0.1018957,0.058221 0.1069808,0.111112 C 7.9723786,5.2236704 7.8722658,5.445803 7.7365616,5.5892903 7.5874105,5.7469954 7.3591034,5.8854341 6.721523,6.2047792 L 6.1263763,6.5028703 6.1260433,6.7141217 C 6.125573,7.0119397 6.0953459,7.3418375 6.0605616,7.4287723 6.0100032,7.55513 5.9546827,7.5507555 5.739495,7.403383 5.4678411,7.2173393 5.3206876,7.2313927 5.1146212,7.4630597 5.0721159,7.5108453 5.0157632,7.5954076 4.9893928,7.6509759 4.9481051,7.7379782 4.941471,7.7762443 4.941623,7.9265212 4.9417699,8.0715297 4.9496459,8.119693 4.9882114,8.2114052 5.0958418,8.4673594 5.322522,8.7230075 5.6762342,8.9873519 6.0119017,9.238211 6.201388,9.3128371 6.5579793,9.334614 6.7801372,9.3481811 6.9731108,9.3243927 7.3138917,9.241431 7.7034439,9.1465962 7.8210101,9.1304617 8.119403,9.130885 c 0.2269987,3.214e-4 0.3023963,0.00764 0.4279484,0.041562 0.4950852,0.1337444 0.8136924,0.4224205 0.7894087,0.7152488 -0.00725,0.087371 -0.017418,0.1103782 -0.069297,0.1567312 -0.060783,0.05431 -0.060866,0.05432 -0.2312772,0.04182 -0.1580346,-0.0116 -0.1822843,-0.0086 -0.332376,0.04175 -0.089047,0.02985 -0.2817663,0.109831 -0.4282645,0.177742 -0.6402521,0.296796 -0.7488761,0.34374 -0.89002,0.384642 -0.2297449,0.06658 -0.5196699,0.08881 -1.0248992,0.0786 -0.3936635,-0.008 -0.4721074,-0.01475 -0.6731859,-0.05829 -0.2574556,-0.05575 -0.2862437,-0.04926 -0.2244918,0.05066 0.1132486,0.18324 0.7801411,0.714945 1.1156574,0.8895 0.7276894,0.378585 1.7053752,0.474085 2.5810471,0.252113 0.928864,-0.235455 1.736901,-0.812164 2.247891,-1.604357 0.16935,-0.262546 0.341052,-0.6647304 0.420593,-0.9851698 0.08386,-0.33785 0.121645,-0.9128617 0.0857,-1.304248 -0.02547,-0.2772768 -0.05033,-0.404836 -0.138805,-0.7121603 -0.07112,-0.2470398 -0.07669,-0.2889878 -0.03834,-0.2889878 0.04806,0 0.299408,0.1824649 0.52903,0.3840471 0.262524,0.2304659 0.474614,0.4573116 0.700536,0.7492746 0.162808,0.2103991 0.189536,0.2382465 0.209503,0.2182793 C 13.209635,8.3257653 12.928747,7.831027 12.71359,7.5455958 12.514635,7.281659 12.067217,6.8560369 11.444317,6.3381564 10.876479,5.8660543 10.48887,5.4986596 10.271157,5.2261768 9.9717191,4.85141 9.725693,4.4151434 9.6006251,4.0371536 9.3848867,3.3851332 9.4092637,2.5985842 9.6685289,1.8461538 9.9165718,1.1262925 10.410713,0.19983835 10.629847,0.04380162 c 0.05425,-0.03862856 0.05615,-0.03873343 0.08899,-0.0048982 0.01846,0.01901646 0.08434,0.13563118 0.146415,0.25914381 0.125765,0.25024823 0.235869,0.40233769 0.492352,0.680096 0.223304,0.24182637 1.007779,0.97808617 1.195569,1.12208637 0.0606,0.046468 0.06229,0.046689 0.088,0.011522 0.02651,-0.036248 0.164645,-0.4507312 0.209408,-0.6283217 l 0.02429,-0.096364 0.105882,0.3229556 c 0.187288,0.5712511 0.368315,0.8902481 0.831454,1.4651441 0.598906,0.7434246 1.034212,1.3810094 1.288338,1.8870045 0.263354,0.5243685 0.532888,1.3582134 0.584546,1.8083827 0.01284,0.1118776 0.03002,0.2142117 0.03817,0.2274088 0.0095,0.015329 0.03407,0.020147 0.06809,0.013342 0.06668,-0.013336 0.116469,0.031973 0.142826,0.1299779 0.125253,0.4657528 0.02942,1.5247463 -0.208824,2.3075696 -0.09316,0.3061112 -0.171503,0.4988739 -0.381598,0.9389389 -0.284146,0.595172 -0.347036,0.778111 -0.373036,1.085115 -0.03551,0.419348 -0.197322,0.841614 -0.491033,1.281438 -0.307654,0.460702 -0.571668,0.679762 -1.542966,1.280243 -0.296623,0.183379 -0.655899,0.454403 -0.950505,0.717024 -0.779742,0.695086 -1.546654,0.961784 -3.1963263,1.111541 -0.3231787,0.02934 -0.6116723,0.03176 -0.9092997,0.0076 z"
     id="path5588" />
</svg>
