<?xml version="1.0" encoding="UTF-8" standalone="no"?>
<svg
   width="64"
   height="64"
   version="1.1"
   id="svg7"
   sodipodi:docname="awm_a.svg"
   inkscape:version="1.3 (0e150ed6c4, 2023-07-21)"
   xmlns:inkscape="http://www.inkscape.org/namespaces/inkscape"
   xmlns:sodipodi="http://sodipodi.sourceforge.net/DTD/sodipodi-0.dtd"
   xmlns="http://www.w3.org/2000/svg"
   xmlns:svg="http://www.w3.org/2000/svg"
   xmlns:rdf="http://www.w3.org/1999/02/22-rdf-syntax-ns#"
   xmlns:cc="http://creativecommons.org/ns#"
   xmlns:dc="http://purl.org/dc/elements/1.1/">
  <defs
     id="defs7" />
  <sodipodi:namedview
     id="namedview7"
     pagecolor="#505050"
     bordercolor="#ffffff"
     borderopacity="1"
     inkscape:showpageshadow="0"
     inkscape:pageopacity="0"
     inkscape:pagecheckerboard="1"
     inkscape:deskcolor="#505050"
     inkscape:zoom="5.4773579"
     inkscape:cx="69.650369"
     inkscape:cy="22.456082"
     inkscape:window-width="1858"
     inkscape:window-height="1012"
     inkscape:window-x="1936"
     inkscape:window-y="52"
     inkscape:window-maximized="0"
     inkscape:current-layer="g7" />
  <metadata
     id="metadata1">
    <rdf:RDF>
      <cc:Work
         rdf:about="">
        <dc:format>image/svg+xml</dc:format>
        <dc:type
           rdf:resource="http://purl.org/dc/dcmitype/StillImage" />
      </cc:Work>
    </rdf:RDF>
  </metadata>
  <g
     fill="#ffffff"
     id="g7">
    <g
       stroke-width="0"
       id="g6" />
    <path
       id="path7"
       style="fill:#ffffff;fill-opacity:1;stroke-width:0.999897"
       sodipodi:type="inkscape:offset"
       inkscape:radius="0"
       inkscape:original="M 10 0 A 9.5131 9.5111456 0 0 0 0 8.9980469 A 10 9.9979455 0 0 0 10 18.996094 L 41.988281 18.996094 A 2 1.9995891 0 0 1 44 20.982422 A 2.0124 2.0119866 0 0 1 41.988281 22.996094 L 10 22.996094 A 10 9.9979455 0 0 0 0 32.994141 L 0 53.988281 A 10 9.9979455 0 0 0 10 63.986328 L 31 63.986328 A 10 9.9979455 0 0 0 41 53.988281 L 41 52.488281 A 7.5 7.4984591 0 0 0 33.5 44.990234 L 21.996094 44.990234 A 1.9964 1.9959898 0 0 1 20 42.994141 L 20 42.988281 A 1.9964 1.9959898 0 0 1 21.996094 40.992188 L 35 40.992188 A 10 9.9979455 0 0 1 45 50.990234 L 45 53.988281 A 9.5131 9.5111456 0 0 0 54 63.986328 A 10 9.9979455 0 0 0 64 53.988281 L 64 9.9980469 A 10 9.9979455 0 0 0 54 0 L 10 0 z "
       d="M 10,0 A 9.5131,9.5111456 0 0 0 0,8.9980469 10,9.9979455 0 0 0 10,18.996094 H 41.988281 A 2,1.9995891 0 0 1 44,20.982422 2.0124,2.0119866 0 0 1 41.988281,22.996094 H 10 A 10,9.9979455 0 0 0 0,32.994141 v 20.99414 a 10,9.9979455 0 0 0 10,9.998047 h 21 a 10,9.9979455 0 0 0 10,-9.998047 v -1.5 A 7.5,7.4984591 0 0 0 33.5,44.990234 H 21.996094 A 1.9964,1.9959898 0 0 1 20,42.994141 v -0.0059 a 1.9964,1.9959898 0 0 1 1.996094,-1.996093 H 35 a 10,9.9979455 0 0 1 10,9.998046 v 2.998047 a 9.5131,9.5111456 0 0 0 9,9.998047 10,9.9979455 0 0 0 10,-9.998047 V 9.9980469 A 10,9.9979455 0 0 0 54,0 Z" />
  </g>
</svg>
