<?xml version="1.0" encoding="UTF-8" standalone="no"?>
<svg
   style="isolation:isolate"
   width="16"
   height="16"
   viewBox="0 0 16 16"
   version="1.1"
   id="svg26876"
   sodipodi:docname="misc.svg"
   inkscape:version="1.2.2 (b0a8486541, 2022-12-01)"
   xmlns:inkscape="http://www.inkscape.org/namespaces/inkscape"
   xmlns:sodipodi="http://sodipodi.sourceforge.net/DTD/sodipodi-0.dtd"
   xmlns="http://www.w3.org/2000/svg"
   xmlns:svg="http://www.w3.org/2000/svg">
  <defs
     id="defs26880" />
  <sodipodi:namedview
     id="namedview26878"
     pagecolor="#ffffff"
     bordercolor="#000000"
     borderopacity="0.25"
     inkscape:showpageshadow="2"
     inkscape:pageopacity="0.0"
     inkscape:pagecheckerboard="0"
     inkscape:deskcolor="#d1d1d1"
     showgrid="false"
     inkscape:zoom="52.125"
     inkscape:cx="4.9208633"
     inkscape:cy="8"
     inkscape:window-width="1888"
     inkscape:window-height="1004"
     inkscape:window-x="12"
     inkscape:window-y="56"
     inkscape:window-maximized="0"
     inkscape:current-layer="svg26876" />
  <path
     fill="#ea9a97"
     fill-rule="evenodd"
     d="m 6.3163827,-0.22176747 c -0.1737066,0.0185013 -0.327884,0.16137236 -0.3597473,0.33405106 L 5.6102501,1.8719618 C 4.9873734,2.1155621 4.402527,2.4496132 3.8886023,2.8607529 L 2.1803166,2.2831016 C 2.0024987,2.2214306 1.7876781,2.3016028 1.6920881,2.4629752 L 0.04752908,5.3152573 C -0.04497737,5.4797132 -0.00591909,5.7058401 0.13695198,5.829182 L 1.4988525,7.0235431 C 1.4515714,7.3442321 1.4217637,7.6669768 1.4217637,8 c 0,0.3340511 0.029808,0.6557679 0.077089,0.9764569 L 0.13695198,10.171846 c -0.14287107,0.122314 -0.18192935,0.349469 -0.0894229,0.513925 l 1.64455902,2.852282 c 0.09559,0.161372 0.3104106,0.240516 0.4882285,0.179873 l 1.7082857,-0.578679 c 0.5139247,0.41114 1.0987711,0.746219 1.7216478,0.989819 l 0.3474131,1.759678 c 0.034947,0.183985 0.2107091,0.331996 0.3977777,0.334051 h 3.2891182 c 0.1870686,-0.0021 0.3628309,-0.150066 0.3977779,-0.334051 l 0.347413,-1.759678 c 0.622877,-0.2436 1.207723,-0.578679 1.721648,-0.989819 l 1.708285,0.578679 c 0.177818,0.06064 0.392639,-0.0185 0.488229,-0.179873 l 1.644559,-2.852282 c 0.09251,-0.164456 0.05345,-0.391611 -0.08942,-0.513925 l -1.3619,-1.1953891 C 14.548429,8.6567958 14.578236,8.3340511 14.578236,8 c 0,-0.3330232 -0.02981,-0.6557679 -0.07709,-0.9764569 l 1.3619,-1.1943611 c 0.142871,-0.1233419 0.181929,-0.3494688 0.08942,-0.5139247 L 14.307912,2.4629752 C 14.212322,2.3016028 13.997501,2.2214306 13.819683,2.2831016 L 12.111398,2.8607529 C 11.597473,2.4496132 11.012627,2.1155621 10.38975,1.8719618 L 10.042337,0.11125574 C 10.00739,-0.0727293 9.8316277,-0.21971177 9.6445591,-0.22279532 H 6.3554409 c -0.012334,0 -0.025696,0 -0.03803,0 z M 4.9164518,8 C 4.9164518,6.2978814 6.2978814,4.9164518 8,4.9164518 9.7021186,4.9164518 11.083548,6.2978814 11.083548,8 11.083548,9.7021186 9.7021186,11.083548 8,11.083548 6.2978814,11.083548 4.9164518,9.7021186 4.9164518,8 Z"
     id="path26874"
     style="fill:#908caa;fill-opacity:1;stroke-width:1.02785" />
</svg>
