<?xml version="1.0" encoding="UTF-8" standalone="no"?>
<svg
   width="16"
   height="16"
   version="1.1"
   viewBox="0 0 4.23 4.23"
   id="svg48"
   sodipodi:docname="chat.svg"
   inkscape:version="1.2.2 (b0a8486541, 2022-12-01)"
   xmlns:inkscape="http://www.inkscape.org/namespaces/inkscape"
   xmlns:sodipodi="http://sodipodi.sourceforge.net/DTD/sodipodi-0.dtd"
   xmlns="http://www.w3.org/2000/svg"
   xmlns:svg="http://www.w3.org/2000/svg">
  <defs
     id="defs52" />
  <sodipodi:namedview
     id="namedview50"
     pagecolor="#ffffff"
     bordercolor="#000000"
     borderopacity="0.25"
     inkscape:showpageshadow="2"
     inkscape:pageopacity="0.0"
     inkscape:pagecheckerboard="0"
     inkscape:deskcolor="#d1d1d1"
     showgrid="false"
     inkscape:zoom="54.4375"
     inkscape:cx="4.326062"
     inkscape:cy="8.0183697"
     inkscape:window-width="1920"
     inkscape:window-height="1036"
     inkscape:window-x="0"
     inkscape:window-y="44"
     inkscape:window-maximized="1"
     inkscape:current-layer="svg48" />
  <g
     transform="translate(0,-292.76665)"
     id="g46">
    <path
       d="m 1.5689225,293.37332 c -0.052606,2.2e-4 -0.4878035,0.0126 -0.94691378,0.35371 0,0 -0.48971705,0.88082 -0.48971705,1.96567 0,0 0.28566369,0.48973 1.03724403,0.51353 0,0 0.1258297,-0.14963 0.2278541,-0.27887 -0.43190364,-0.12923 -0.59514191,-0.39788 -0.59514191,-0.39788 0,0 0.0340153,0.0238 0.0952301,0.0578 0.003403,0 0.006787,0.004 0.0135928,0.007 0.0102028,0.007 0.0204084,0.0102 0.0306103,0.017 0.08502,0.0476 0.17003811,0.085 0.24825691,0.11563 0.1394334,0.0579 0.3060785,0.10883 0.4999249,0.14623 0.2550611,0.0476 0.5543276,0.0646 0.8808059,0.004 0.1598385,-0.0306 0.3230878,-0.0748 0.4931287,-0.14623 0.1190285,-0.0442 0.2516555,-0.10882 0.3910888,-0.20064 0,0 -0.1700379,0.27546 -0.6155447,0.4013 0.1020247,0.12583 0.2244559,0.27205 0.2244559,0.27205 0.7515804,-0.0238 1.0372441,-0.51353 1.0372441,-0.51013 0,-1.08486 -0.4897172,-1.96568 -0.4897172,-1.96568 -0.4863167,-0.36388 -0.952235,-0.35368 -0.952235,-0.35368 l -0.047602,0.0544 c 0.5781388,0.17343 0.8467972,0.42851 0.8467972,0.42851 -0.3536852,-0.19044 -0.7005607,-0.28568 -1.023638,-0.32309 -0.2448588,-0.0272 -0.4795243,-0.0204 -0.6869739,0.007 -0.020405,0 -0.037404,0.004 -0.05781,0.007 -0.1190285,0.0136 -0.4080954,0.0544 -0.77198279,0.21425 -0.12583014,0.0544 -0.20065493,0.0952 -0.20065493,0.0952 0,0 0.278867,-0.26868 0.89101382,-0.44211 l -0.034009,-0.0408 c 0,0 -0.0018,-3e-5 -0.00531,-2e-5 z m -0.086511,1.25493 c 0.1938464,0 0.3502857,0.16664 0.3468851,0.37409 0,0.20745 -0.1530387,0.37409 -0.3468851,0.37409 -0.1904457,0 -0.3468851,-0.16664 -0.3468851,-0.37409 0,-0.20745 0.1530386,-0.37409 0.3468851,-0.37409 z m 1.2412972,0 c 0.1904457,0 0.3468852,0.16664 0.3468852,0.37409 0,0.20745 -0.1530386,0.37409 -0.3468852,0.37409 -0.1904456,0 -0.3468852,-0.16664 -0.3468852,-0.37409 0,-0.20745 0.1530386,-0.37409 0.3468852,-0.37409 z"
       style="fill:#ea9a97"
       id="path44" />
  </g>
  <path
     style="fill:#e0def4;stroke-width:0.0183697;fill-opacity:1"
     d="M 4.087256,12.984027 C 4.0468427,12.980533 3.893915,12.96088 3.7474168,12.940353 2.6381645,12.784925 1.6714324,12.320925 0.95522388,11.600189 0.82893226,11.473099 0.67807118,11.302446 0.61997704,11.220961 l -0.10562572,-0.148155 8.536e-5,-0.245932 C 0.51471078,10.037173 0.64639114,8.8948141 0.84664434,7.9448909 1.1071129,6.7093298 1.5384324,5.3951421 2.0554541,4.2617681 2.3240786,3.6729108 2.3354425,3.6550104 2.5258324,3.5208347 3.4329312,2.8815641 4.5238992,2.4519841 5.5430727,2.332765 5.9135504,2.2894279 5.9379294,2.2918066 6.0061551,2.3779487 l 0.057463,0.072553 -0.078881,0.021213 C 5.7790797,2.5270222 5.2216547,2.7196273 4.9192202,2.8398791 4.5107343,3.0022982 3.7896026,3.3626708 3.4563782,3.5709081 3.1136279,3.7850982 2.6657216,4.1239954 2.7253856,4.1239954 c 0.0068,0 0.09551,-0.041724 0.1971299,-0.092719 0.6084464,-0.3053327 1.4333822,-0.6214587 2.083225,-0.7983188 0.6224766,-0.169412 1.3705376,-0.2897963 2.2319174,-0.359179 0.3496001,-0.02816 1.1818926,-0.02843 1.5522388,-5.045e-4 1.3854703,0.1044708 2.7083563,0.4705255 3.9639883,1.096872 0.169632,0.084617 0.313507,0.1538493 0.319725,0.1538493 0.04899,0 -0.286886,-0.2591007 -0.603232,-0.4653431 C 11.860337,3.2609361 11.138212,2.9192974 10.307887,2.6355748 l -0.4108269,-0.1403799 0.080173,-0.095144 0.080172,-0.095144 0.183697,0.010227 c 1.031378,0.057422 2.284643,0.5266585 3.273462,1.2256215 0.132233,0.093471 0.13974,0.1029691 0.243571,0.3081666 0.659926,1.3041915 1.240286,3.0810389 1.505839,4.6103206 0.145275,0.8366175 0.239448,1.7979244 0.239926,2.4491304 l 1.1e-4,0.162104 -0.104614,0.140996 c -0.14364,0.193593 -0.564648,0.608898 -0.783036,0.772429 -0.755268,0.565551 -1.735403,0.923701 -2.69444,0.984572 -0.09598,0.0061 -0.208222,0.0152 -0.249424,0.02023 -0.07417,0.0091 -0.07601,0.0078 -0.185155,-0.125164 -0.06063,-0.07388 -0.248831,-0.302088 -0.418217,-0.507139 -0.169387,-0.205052 -0.305126,-0.374953 -0.301643,-0.37756 0.0035,-0.0026 0.122063,-0.04392 0.263509,-0.09181 0.79691,-0.269804 1.558845,-0.785302 1.981459,-1.340583 0.03751,-0.04928 0.06432,-0.09348 0.05958,-0.09821 -0.0047,-0.0047 -0.04432,0.01573 -0.08797,0.04547 -0.609394,0.415294 -1.727446,0.890115 -2.649744,1.125309 -0.495165,0.126276 -1.0171638,0.21485 -1.5168724,0.257392 -0.2996916,0.02551 -1.1036596,0.02513 -1.4163525,-6.69e-4 -1.4017942,-0.115673 -2.8492404,-0.558151 -4.0193024,-1.228681 -0.145523,-0.0834 -0.2839845,-0.164338 -0.3076923,-0.179871 -0.070899,-0.04645 -0.049744,-0.0034 0.074717,0.152192 0.4351179,0.54383 1.1605637,1.019634 1.9703129,1.292285 l 0.1501333,0.05055 -0.1400665,0.172738 c -0.077028,0.09501 -0.2675457,0.327732 -0.4233642,0.517169 l -0.2833064,0.344432 -0.1308934,-0.0031 c -0.071992,-0.0017 -0.1639591,-0.0059 -0.2043724,-0.0094 z M 5.9222139,9.8374834 C 6.3752035,9.7216281 6.7459483,9.3404585 6.8786138,8.8541906 6.9265719,8.6784061 6.9364794,8.3323542 6.8988758,8.1464691 6.7994065,7.6547656 6.469733,7.2611672 6.0289696,7.1078848 5.8376406,7.0413472 5.6459527,7.0196528 5.4636842,7.0439082 5.14985,7.0856718 4.9434961,7.1887493 4.7095853,7.4205944 4.5613948,7.5674761 4.5312781,7.6089863 4.4491441,7.7795637 4.3295539,8.0279302 4.2904625,8.2027643 4.2930664,8.4776119 4.2983456,9.03486 4.5835788,9.508442 5.0585106,9.7485042 5.3062279,9.873717 5.6443455,9.9085502 5.9222139,9.8374834 Z m 4.7842831,-0.02418 c 0.200156,-0.070144 0.325195,-0.1515933 0.499487,-0.3253584 0.128567,-0.1281786 0.172219,-0.187396 0.24374,-0.3306544 0.125716,-0.2518127 0.164577,-0.4166398 0.164577,-0.6980482 0,-0.2797295 -0.0384,-0.4435169 -0.163645,-0.6980483 C 11.378096,7.6137367 11.33891,7.5609574 11.197891,7.4207493 10.93017,7.1545677 10.655859,7.0384077 10.296211,7.0389234 9.7869669,7.0396545 9.3559851,7.3248112 9.1250831,7.8137962 8.7787479,8.5472353 9.0956005,9.4618338 9.8046639,9.7754153 c 0.1791151,0.079213 0.2887451,0.097817 0.5374711,0.091209 0.188949,-0.00502 0.253488,-0.014465 0.364362,-0.053321 z"
     id="path227"
     transform="scale(0.264375)" />
</svg>
