<?xml version="1.0" encoding="UTF-8" standalone="no"?>
<svg
   style="isolation:isolate"
   width="16"
   height="16"
   viewBox="0 0 16 16"
   version="1.1"
   id="svg1647"
   sodipodi:docname="misc.svg"
   inkscape:version="1.2.2 (b0a8486541, 2022-12-01)"
   xmlns:inkscape="http://www.inkscape.org/namespaces/inkscape"
   xmlns:sodipodi="http://sodipodi.sourceforge.net/DTD/sodipodi-0.dtd"
   xmlns="http://www.w3.org/2000/svg"
   xmlns:svg="http://www.w3.org/2000/svg">
  <defs
     id="defs1651" />
  <sodipodi:namedview
     id="namedview1649"
     pagecolor="#ffffff"
     bordercolor="#000000"
     borderopacity="0.25"
     inkscape:showpageshadow="2"
     inkscape:pageopacity="0.0"
     inkscape:pagecheckerboard="0"
     inkscape:deskcolor="#d1d1d1"
     showgrid="false"
     inkscape:zoom="54.4375"
     inkscape:cx="5.0241102"
     inkscape:cy="8.0183697"
     inkscape:window-width="1920"
     inkscape:window-height="1036"
     inkscape:window-x="0"
     inkscape:window-y="44"
     inkscape:window-maximized="1"
     inkscape:current-layer="svg1647" />
  <path
     fill="#ea9a97"
     fill-rule="evenodd"
     d="M 6.362 0.001 C 6.193 0.019 6.043 0.158 6.012 0.326 L 5.675 2.038 C 5.069 2.275 4.5 2.6 4 3 L 2.338 2.438 C 2.165 2.378 1.956 2.456 1.863 2.613 L 0.263 5.388 C 0.173 5.548 0.211 5.768 0.35 5.888 L 1.675 7.05 C 1.629 7.362 1.6 7.676 1.6 8 C 1.6 8.325 1.629 8.638 1.675 8.95 L 0.35 10.113 C 0.211 10.232 0.173 10.453 0.263 10.613 L 1.863 13.388 C 1.956 13.545 2.165 13.622 2.338 13.563 L 4 13 C 4.5 13.4 5.069 13.726 5.675 13.963 L 6.013 15.675 C 6.047 15.854 6.218 15.998 6.4 16 L 9.6 16 C 9.782 15.998 9.953 15.854 9.987 15.675 L 10.325 13.963 C 10.931 13.726 11.5 13.4 12 13 L 13.662 13.563 C 13.835 13.622 14.044 13.545 14.137 13.388 L 15.737 10.613 C 15.827 10.453 15.789 10.232 15.65 10.113 L 14.325 8.95 C 14.371 8.639 14.4 8.325 14.4 8 C 14.4 7.676 14.371 7.362 14.325 7.05 L 15.65 5.888 C 15.789 5.768 15.827 5.548 15.737 5.388 L 14.137 2.613 C 14.044 2.456 13.835 2.378 13.662 2.438 L 12 3 C 11.5 2.6 10.931 2.275 10.325 2.038 L 9.987 0.325 C 9.953 0.146 9.782 0.003 9.6 0 L 6.4 0 C 6.388 0 6.375 0 6.363 0 L 6.362 0.001 Z M 5 8 C 5 6.344 6.344 5 8 5 C 9.656 5 11 6.344 11 8 C 11 9.656 9.656 11 8 11 C 6.344 11 5 9.656 5 8 Z"
     id="path1645" />
  <path
     style="fill:#e0def4;stroke-width:0.0183697"
     d="M 6.2343287,15.939502 C 6.0550696,15.845856 6.0571836,15.851886 5.8691437,14.897819 5.7775442,14.433065 5.6982439,14.030842 5.6929211,14.003988 5.6851889,13.96498 5.6622259,13.946728 5.5787053,13.913205 5.1152665,13.727194 4.496422,13.373686 4.1241754,13.082319 L 4.0049525,12.989001 3.1505819,13.27779 c -0.6505878,0.219907 -0.8759901,0.288721 -0.9450118,0.288507 -0.099828,-3.1e-4 -0.2207854,-0.04991 -0.2810916,-0.115254 -0.03405,-0.0369 -1.56378312,-2.676005 -1.65676254,-2.85826 -0.0483136,-0.0947 -0.0495711,-0.241969 -0.002943,-0.344648 0.0269501,-0.05935 0.18210796,-0.205312 0.7206069,-0.6779194 C 1.362824,9.2389566 1.6741217,8.9660328 1.6771527,8.9637184 1.6801838,8.9614038 1.6681752,8.84075 1.650467,8.6955988 1.6065996,8.3360254 1.6065121,7.6646584 1.6502851,7.3059786 L 1.6823006,7.0436451 1.6310466,6.9992362 C 0.75240759,6.2379404 0.30783865,5.8327445 0.27095293,5.7595979 0.21696401,5.6525346 0.21567468,5.5092262 0.26778143,5.4070885 0.3592466,5.227802 1.8907679,2.5860919 1.9247723,2.5489569 1.9846033,2.4836177 2.105614,2.4340005 2.2055701,2.4338232 c 0.068815,-1.286e-4 0.29634,0.069372 0.9448916,0.2886022 L 4.004712,3.0111882 4.1240553,2.9177751 C 4.4554831,2.6583574 4.9860473,2.3468929 5.4209493,2.1564409 5.5613561,2.094954 5.6779323,2.0430639 5.6800075,2.0411294 5.6820829,2.0391949 5.7625302,1.6382317 5.8587795,1.1501003 6.0405772,0.22810575 6.0534075,0.18332603 6.1597507,0.09966578 6.2787435,0.006054 6.2151138,0.00918485 7.9986366,0.00918485 h 1.6657916 l 0.095969,0.04782331 c 0.1042035,0.05192685 0.1708335,0.12691711 0.2023342,0.22772204 0.01105,0.0353617 0.095231,0.44435177 0.1870686,0.9088669 0.09184,0.4645152 0.168549,0.8461046 0.170472,0.8479766 0.0019,0.00187 0.10269,0.046487 0.22393,0.099145 0.481986,0.2093395 0.967902,0.4929277 1.331778,0.7772473 l 0.119379,0.093278 0.854215,-0.2887177 c 0.647282,-0.2187759 0.876172,-0.2886962 0.944856,-0.2886299 0.09985,9.18e-5 0.220618,0.04953 0.281091,0.1150604 0.03405,0.036897 1.563784,2.6760051 1.656763,2.8582598 0.05204,0.1020056 0.05072,0.2453766 -0.0032,0.3523812 -0.03212,0.063694 -0.182596,0.2060908 -0.675086,0.6388352 -0.348565,0.3062793 -0.656819,0.5767482 -0.685008,0.6010417 l -0.05125,0.04417 0.03202,0.2623335 c 0.04368,0.3579277 0.04368,1.0301151 0,1.3880428 l -0.03202,0.2623335 0.05125,0.044047 c 0.02819,0.024226 0.336443,0.2947974 0.685008,0.6012703 0.490504,0.4312722 0.643097,0.5756982 0.675086,0.6389592 0.05457,0.107903 0.05532,0.250035 0.0019,0.35482 -0.09462,0.18558 -1.620731,2.818468 -1.655196,2.855592 -0.06076,0.06545 -0.181581,0.114945 -0.28132,0.115254 -0.06902,2.15e-4 -0.294424,-0.0686 -0.945012,-0.288507 l -0.85437,-0.288789 -0.119223,0.09315 c -0.379694,0.296677 -0.990525,0.645823 -1.453518,0.83082 l -0.103524,0.04136 -0.17015,0.857502 c -0.09358,0.471627 -0.1783326,0.882302 -0.1883345,0.912612 -0.030795,0.09332 -0.099621,0.168565 -0.1999013,0.218537 l -0.095969,0.04782 H 7.9984909 6.3325535 Z M 8.4414299,10.975215 C 9.5624053,10.806679 10.492733,10.026418 10.84762,8.9571549 11.106345,8.1776257 11.050707,7.3830185 10.686061,6.6498278 10.030064,5.3308183 8.4916919,4.6850248 7.0815155,5.1366751 6.1016564,5.4505036 5.3383623,6.2589889 5.0892982,7.2468427 5.0193172,7.5244058 4.9987667,7.6953705 4.9987667,8 c 0,0.1566016 0.01047,0.3508611 0.023266,0.4316877 0.1596181,1.0082063 0.757492,1.8246553 1.6645344,2.2730663 0.3240029,0.160176 0.6233668,0.241526 1.0929965,0.297014 0.1036885,0.01225 0.5129837,-0.0042 0.6618662,-0.02655 z"
     id="path2133" />
</svg>
