<?xml version="1.0" encoding="UTF-8" standalone="no"?>
<svg
   style="isolation:isolate"
   width="16"
   height="16"
   viewBox="0 0 16 16"
   version="1.1"
   id="svg1647"
   sodipodi:docname="misc.svg"
   inkscape:version="1.2.2 (b0a8486541, 2022-12-01)"
   xmlns:inkscape="http://www.inkscape.org/namespaces/inkscape"
   xmlns:sodipodi="http://sodipodi.sourceforge.net/DTD/sodipodi-0.dtd"
   xmlns="http://www.w3.org/2000/svg"
   xmlns:svg="http://www.w3.org/2000/svg">
  <defs
     id="defs1651" />
  <sodipodi:namedview
     id="namedview1649"
     pagecolor="#ffffff"
     bordercolor="#000000"
     borderopacity="0.25"
     inkscape:showpageshadow="2"
     inkscape:pageopacity="0.0"
     inkscape:pagecheckerboard="0"
     inkscape:deskcolor="#d1d1d1"
     showgrid="false"
     inkscape:zoom="38.493125"
     inkscape:cx="8.7937781"
     inkscape:cy="7.6377275"
     inkscape:window-width="1888"
     inkscape:window-height="1004"
     inkscape:window-x="12"
     inkscape:window-y="56"
     inkscape:window-maximized="0"
     inkscape:current-layer="svg1647" />
  <path
     fill="#ea9a97"
     fill-rule="evenodd"
     d="M 6.362 0.001 C 6.193 0.019 6.043 0.158 6.012 0.326 L 5.675 2.038 C 5.069 2.275 4.5 2.6 4 3 L 2.338 2.438 C 2.165 2.378 1.956 2.456 1.863 2.613 L 0.263 5.388 C 0.173 5.548 0.211 5.768 0.35 5.888 L 1.675 7.05 C 1.629 7.362 1.6 7.676 1.6 8 C 1.6 8.325 1.629 8.638 1.675 8.95 L 0.35 10.113 C 0.211 10.232 0.173 10.453 0.263 10.613 L 1.863 13.388 C 1.956 13.545 2.165 13.622 2.338 13.563 L 4 13 C 4.5 13.4 5.069 13.726 5.675 13.963 L 6.013 15.675 C 6.047 15.854 6.218 15.998 6.4 16 L 9.6 16 C 9.782 15.998 9.953 15.854 9.987 15.675 L 10.325 13.963 C 10.931 13.726 11.5 13.4 12 13 L 13.662 13.563 C 13.835 13.622 14.044 13.545 14.137 13.388 L 15.737 10.613 C 15.827 10.453 15.789 10.232 15.65 10.113 L 14.325 8.95 C 14.371 8.639 14.4 8.325 14.4 8 C 14.4 7.676 14.371 7.362 14.325 7.05 L 15.65 5.888 C 15.789 5.768 15.827 5.548 15.737 5.388 L 14.137 2.613 C 14.044 2.456 13.835 2.378 13.662 2.438 L 12 3 C 11.5 2.6 10.931 2.275 10.325 2.038 L 9.987 0.325 C 9.953 0.146 9.782 0.003 9.6 0 L 6.4 0 C 6.388 0 6.375 0 6.363 0 L 6.362 0.001 Z M 5 8 C 5 6.344 6.344 5 8 5 C 9.656 5 11 6.344 11 8 C 11 9.656 9.656 11 8 11 C 6.344 11 5 9.656 5 8 Z"
     id="path1645"
     style="fill:#e0def4;fill-opacity:1" />
</svg>
