<?xml version="1.0" encoding="UTF-8" standalone="no"?>
<!-- Created with Inkscape (http://www.inkscape.org/) -->

<svg
   version="1.1"
   id="svg1"
   width="2058.6667"
   height="2058.6667"
   viewBox="0 0 2058.6667 2058.6667"
   sodipodi:docname="icon.svg"
   inkscape:version="1.3 (0e150ed6c4, 2023-07-21)"
   xmlns:inkscape="http://www.inkscape.org/namespaces/inkscape"
   xmlns:sodipodi="http://sodipodi.sourceforge.net/DTD/sodipodi-0.dtd"
   xmlns="http://www.w3.org/2000/svg"
   xmlns:svg="http://www.w3.org/2000/svg">
  <defs
     id="defs1" />
  <sodipodi:namedview
     id="namedview1"
     pagecolor="#505050"
     bordercolor="#ffffff"
     borderopacity="1"
     inkscape:showpageshadow="0"
     inkscape:pageopacity="0"
     inkscape:pagecheckerboard="1"
     inkscape:deskcolor="#505050"
     inkscape:zoom="0.35355339"
     inkscape:cx="934.79516"
     inkscape:cy="1032.3759"
     inkscape:window-width="1853"
     inkscape:window-height="1016"
     inkscape:window-x="1936"
     inkscape:window-y="48"
     inkscape:window-maximized="0"
     inkscape:current-layer="g2" />
  <g
     inkscape:groupmode="layer"
     inkscape:label="Image"
     id="g1">
    <g
       id="g2"
       transform="translate(0.03367632,-0.15881111)">
      <path
         style="fill:#1e1e2e;fill-opacity:1"
         d="m 987.33337,2057.8224 c -150.8645,-6.3283 -292.7754,-43.4301 -426.33335,-111.4624 -24.82313,-12.6445 -29,-15.2047 -29,-17.7755 0,-1.6519 1.4739,-13.1092 3.27533,-25.4606 14.71122,-100.8669 31.7129,-177.7156 57.49957,-259.9019 3.24047,-10.3279 5.89118,-19.3279 5.89046,-20 -7.3e-4,-0.672 -4.95073,-3.8796 -11,-7.1279 -72.77026,-39.0755 -136.26057,-94.2257 -180.65447,-156.9237 -40.81212,-57.6394 -69.33682,-127.5841 -81.56346,-199.9998 -18.62367,-110.3041 -7.88796,-233.3788 29.81821,-341.83723 17.17292,-49.39637 41.80537,-99.31462 66.84463,-135.4622 l 8.4016,-12.12886 -4.64661,-19.20447 C 403.56599,658.37451 391.69054,572.5947 391.45746,502.00002 c -0.12221,-37.01679 1.04863,-51.86671 6.03549,-76.54902 2.98018,-14.75031 6.41105,-22.21582 14.19413,-30.88613 11.88127,-13.2357 26.00458,-18.09789 48.30409,-16.62952 56.60714,3.72744 113.51913,18.81748 161.68,42.86896 42.63725,21.29299 76.47646,46.4876 113.51313,84.51494 l 19.85093,20.38192 23.4824,-7.53581 c 38.39859,-12.3226 69.30089,-19.66213 109.76252,-26.0694 104.71894,-16.5827 220.75185,-12.86557 311.67085,9.98443 10.3923,2.61181 19.385,4.56219 19.9839,4.33419 0.5988,-0.22801 5.914,-6.62768 11.8116,-14.2215 56.272,-72.45754 122.018,-117.05491 211.9343,-143.76102 18.3168,-5.4403 22.5969,-6.24395 33.6526,-6.31879 11.1,-0.0751 13.6291,0.36342 20.4479,3.54583 16.0781,7.50385 22.272,14.68784 32.8198,38.06555 13.416,29.73471 22.7651,62.56813 28.5781,100.36467 9.1813,59.69669 7.9119,118.33798 -3.9775,183.74709 l -3.4844,19.16972 13.9227,14.16361 c 113.6291,115.59452 174.4706,262.25681 169.876,409.49696 -1.5307,49.0556 -7.6711,88.9844 -20.4019,132.6667 -26.1156,89.6088 -73.0215,169.2721 -140.3556,238.3752 -37.2,38.1773 -70.3294,65.3643 -114.0918,93.6272 -8.8,5.6833 -16.213,10.5208 -16.4734,10.75 -0.2604,0.2292 1.3676,9.9036 3.6178,21.4988 19.5818,100.9062 31.5055,209.9855 35.345,323.3402 l 0.6636,19.5914 -15.5765,7.5293 c -111.7249,54.0047 -233.6418,86.6845 -362.9098,97.2779 -24.3101,1.9922 -94.5967,3.4807 -118.00003,2.499 z"
         id="path2"
         sodipodi:nodetypes="ssssssssssscssssssscsssscsssssscsssssssscsss" />
      <path
         style="fill:#cdd6f4;fill-opacity:1;stroke-width:1.21297"
         d="m 1137.0242,1393.7672 c -26.6167,-3.6648 -55.9102,-18.687 -77.2216,-39.6007 -14.1928,-13.9279 -20.8225,-25.1175 -19.9856,-33.7316 0.4386,-4.5139 1.1281,-5.1436 6.1544,-5.6213 7.9304,-0.7539 15.6503,1.8902 32.8286,11.2434 27.255,14.8397 42.7511,17.8738 70.1505,13.7354 35.3602,-5.341 49.5626,-13.761 79.1828,-46.9446 9.8538,-11.0391 9.9677,-11.1082 16.9815,-10.3035 4.4769,0.5137 11.5007,3.5067 19.1909,8.1776 22.9245,13.924 42.3164,17.4894 64.2341,11.8099 22.769,-5.9 33.3276,-12.8968 46.6522,-30.9142 9.9326,-13.4311 17.5816,-20.3988 20.9667,-19.0998 3.643,1.3979 2.9495,17.2609 -1.2984,29.7022 -9.8837,28.9472 -32.269,55.9039 -56.1591,67.6275 -21.8317,10.7133 -38.3697,11.707 -67.9636,4.0835 -15.3088,-3.9438 -21.8195,-2.0455 -39.6521,11.5608 -7.5856,5.7879 -18.8316,13.0612 -24.9907,16.1629 -20.7923,10.4708 -47.2702,15.1141 -69.0706,12.1125 z m 72.9398,-167.1352 c -13.4565,-4.41 -33.9585,-16.8861 -60.1455,-36.6006 -32.0553,-24.1322 -36.0288,-28.934 -37.0368,-44.7565 -0.5442,-8.5417 -0.036,-12.3488 2.2274,-16.7205 5.3595,-10.3475 6.1774,-10.4852 95.456,-16.0838 91.0674,-5.7107 87.1258,-5.9582 94.5211,5.9365 3.1067,4.9969 3.795,8.3161 3.795,18.2994 v 12.1953 l -10.3859,15.2987 c -32.2851,47.5565 -49.2739,62.877 -71.004,64.0313 -6.2713,0.3332 -13.5749,-0.3373 -17.4273,-1.5998 z M 687.41481,1020.5624 c -1.95865,-0.3141 -5.7795,-3.0976 -8.49078,-6.1856 -5.73216,-6.5285 -6.34995,-13.9015 -2.63361,-31.43127 16.90196,-79.72561 79.48546,-142.95049 154.50485,-156.08826 16.33952,-2.86146 49.18087,-3.24688 63.42519,-0.74436 40.03203,7.03307 75.61613,25.84194 105.62283,55.82962 23.94051,23.92524 43.33691,55.11697 53.25891,85.64657 5.8809,18.09557 5.6124,24.99199 -1.2569,32.27554 -4.7086,4.99256 -6.4536,5.77566 -12.8702,5.77566 -7.0915,0 -8.1981,-0.6906 -24.776,-15.46184 -32.86091,-29.27981 -58.86861,-43.51584 -99.22831,-54.31527 -12.01597,-3.21525 -17.71797,-3.68669 -45.28412,-3.74402 -25.46874,-0.053 -33.87118,0.51271 -43.66686,2.93983 -45.44922,11.26121 -83.41086,34.41395 -111.43141,67.9618 -6.31726,7.5634 -12.23669,14.2156 -13.15429,14.7827 -3.05666,1.8892 -10.41398,3.337 -14.0193,2.7589 z m 560.66609,-51.69511 c -4.7706,-4.26245 -5.3409,-5.66663 -5.1648,-12.71619 0.2376,-9.51861 6.693,-32.42046 13.1566,-46.67548 11.4463,-25.24418 36.1224,-54.56917 58.6196,-69.66313 65.0299,-43.63035 150.1823,-37.92688 209.4475,14.02873 21.5657,18.90584 38.7835,43.64427 48.7666,70.06761 8.0546,21.31886 7.0773,29.6053 -4.0389,34.25001 -8.3415,3.48526 -13.0765,1.67357 -26.4881,-10.13453 -35.7527,-31.47821 -73.2085,-46.79051 -118.9697,-48.63609 -27.7885,-1.12072 -43.8421,0.94244 -66.9183,8.6002 -31.043,10.30146 -53.9118,25.04707 -76.6695,49.43578 -11.7251,12.56539 -14.4037,14.62851 -19.9604,15.37381 -5.4834,0.73547 -7.1989,0.16306 -11.7806,-3.93072 z"
         id="path9"
         sodipodi:nodetypes="ssssssssssssssssssssscssscssssssssssssssssssssssssssssssss" />
      <path
         style="fill:#f9e2af;fill-opacity:1"
         d="M 282.66668,1738.4009 C 214.89085,1666.7415 159.04702,1587.7728 112.61524,1497.9315 L 98.797929,1471.1962 210.67093,1359.3291 c 72.44885,-72.445 112.82593,-112.319 112.83555,-112.2437 0.62633,4.9101 1.4513,8.7009 2.29222,14.2009 10.35271,67.711 42.52625,145.8586 84.39116,203.1863 20.03016,27.4283 53.96869,63.1842 77.93024,83.2454 4.58333,3.8372 8.90353,7.1468 8.90353,7.5832 0,0.4365 -45.57361,45.9086 -100.02361,100.3419 l -99.00001,98.9697 z M 1206.6541,503.78158 c -25.2168,-5.92614 -63.6817,-13.33072 -101.7776,-17.92177 l -21.688,-1.82294 192.0205,-192.85142 191.2967,-192.147908 28.4138,14.890398 c 43.4029,22.74546 58.1756,31.43666 97.7472,57.50743 46.8692,30.87861 94.7753,69.09887 138.3762,110.39889 l 18.3762,17.40642 -94.3567,94.36365 -95.187,94.85637 -2.7907,-16.49135 c -4.5055,-26.62481 -14.8167,-62.66081 -26.5347,-88.36748 -10.013,-21.96621 -17.7379,-30.88127 -32.1225,-37.62605 -6.6193,-3.10377 -13.957,-3.85799 -21.1097,-3.85071 -11.2519,0.0114 -15.8076,0.95166 -33.1952,6.12506 -55.585,16.53839 -103.7541,41.36061 -143.8832,73.34418 -22.3045,17.77704 -59.2754,56.60108 -75.3452,79.62887 -2.164,3.10101 -4.8275,5.34709 -5.5608,5.29888 -0.7334,-0.0482 -6.4033,-1.2656 -12.6793,-2.74052 z"
         id="path8"
         sodipodi:nodetypes="sscssssssscssscccssscccsssasssss" />
      <path
         style="fill:#cba6f7;fill-opacity:1"
         d="m 1483.9922,1946.8534 c -0.02,-8.8101 -2.7884,-69.6483 -4.0436,-88.8533 -5.5375,-84.731 -15.9814,-167.3555 -31.2976,-247.6046 -2.5408,-13.3125 -4.4766,-24.2838 -4.3019,-24.3807 5.2144,-2.8919 31.0393,-20.0089 42.9843,-28.4904 79.9974,-56.802 151.7815,-141.4308 191.8519,-221.7661 3.0527,-6.1202 31.5511,-32.2484 185.2387,-186.0708 126.8496,-126.961 185.1867,-187.2953 185.3669,-185.56195 0.3056,2.93963 1.115,115.74555 -0.2069,140.54115 -2.5825,48.4401 -10.4384,92.9629 -18.4073,132 -46.4582,227.585 -169.5294,433.2799 -349.4387,584.0342 -51.5969,43.2354 -118.275,87.9216 -178.0713,119.3394 -19.5413,10.2673 -19.6667,10.3107 -19.6745,6.8131 z"
         id="path7"
         sodipodi:nodetypes="sssssssssssss" />
      <path
         style="fill:#74c7ec;fill-opacity:1"
         d="m 1683.6887,1326.0001 c 15.1471,-30.3018 31.1156,-76.3774 39.5094,-114.0001 7.6478,-34.2794 11.1158,-62.8086 12.3179,-101.3333 2.5229,-80.8496 -14.1031,-159.90126 -50.2074,-238.72073 l -8.1428,-17.77671 136.5222,-136.52221 136.5222,-136.52221 9.5652,21.22597 c 38.0399,84.4136 63.2333,166.8289 78.1489,255.64922 5.2378,31.19052 10.9613,79.72564 11.6049,98.41036 l 0.2668,7.74368 -185.2313,185.55873 c -101.8772,102.0572 -185.451,185.8726 -185.7196,186.2563 -0.2686,0.3837 1.911,-4.1024 4.8436,-9.969 z"
         id="path6"
         sodipodi:nodetypes="sssscccssscsss" />
      <path
         style="fill:#fab387;fill-opacity:1"
         d="M 91.379538,1453.7637 C 51.776134,1366.4858 23.597279,1268.9829 10.14103,1172.6667 6.8110625,1148.8317 3.1000088,1111.4536 2.3772253,1094.469 L 2.0000001,1085.6046 205.1255,881.46783 c 111.71902,-112.2752 203.58522,-203.85261 204.14712,-203.50534 0.56189,0.34727 1.39297,3.34069 1.84684,6.65205 0.45387,3.31136 4.22721,21.17774 8.3852,39.70307 4.15798,18.52533 8.16191,36.40058 8.89762,39.72277 l 1.33765,6.04035 -8.7014,12.62632 c -4.78576,6.94447 -13.02971,20.12632 -18.31988,29.29298 -68.71876,119.07404 -98.7962,272.45357 -81.9598,417.95277 l 2.77224,17.139 -112.5828,111.958 -111.810808,111.8108 z M 742.4927,512.86492 C 720.22971,488.57824 691.52187,464.17116 664.94032,445.85664 L 649.05159,435.75271 865.83347,218.66668 1082,2.0000001 l 8.6667,0.3772252 c 82.7771,3.6029543 192.5456,25.9881457 278.0942,56.7120067 39.9849,14.360125 74.9007,28.268668 97.7357,39.958632 0.5028,0.257379 -87.6299,88.026506 -192.4965,193.272136 l -190.8143,191.72324 -17.9876,-1.03493 c -22.8144,-1.31263 -92.94031,-0.43948 -119.18723,2.08248 -50.83087,4.88413 -87.5575,11.03762 -129.81096,22.03004 -16.08181,4.18376 -51.2647,15.19797 -61.07001,18.6301 -0.81835,0.28645 -6.11464,-5.77045 -12.6373,-12.88601 z M 1063.75,0.42251464 c 0.9625,-0.38516084 2.1125,-0.33779241 2.5556,0.10526316 0.4431,0.44305557 -0.3444,0.7581872 -1.75,0.7002924 -1.5533,-0.063978 -1.8692,-0.37992039 -0.8056,-0.80555556 z"
         id="path5"
         sodipodi:nodetypes="ssscssssscssscccssscccsssscsssssssss" />
      <path
         style="fill:#a6e3a1;fill-opacity:1"
         d="m 529.9737,1930.8354 c -0.71886,-0.6885 -10.30701,-6.4979 -21.30701,-12.9099 -67.45271,-39.3187 -132.38959,-88.6033 -192.61043,-146.1838 l -17.94375,-17.157 99.49413,-99.6225 99.49413,-99.6225 10.44962,8.3678 c 20.7086,16.5829 54.13155,38.4406 80.11499,52.3929 6.04927,3.2483 10.99927,6.4559 11,7.1279 7.2e-4,0.6721 -2.64999,9.6721 -5.89046,20 -26.41505,84.189 -45.8799,173.5835 -59.18605,271.8184 -1.49531,11.0394 -2.76844,16.5996 -3.61517,15.7887 z M 1672.2125,845.82517 c -2.4149,-4.89699 -8.9299,-16.46096 -14.4778,-25.69771 -25.8375,-43.01659 -56.9533,-83.20853 -92.0947,-118.95772 l -13.9227,-14.16361 3.4824,-19.16972 c 4.7915,-26.3749 7.0351,-44.48309 8.9005,-71.83639 2.0957,-30.72942 -2.8635,-85.37549 -4.1448,-107.47829 -0.021,-0.35249 4.7009,-4.61882 94.7547,-94.52171 l 94.705,-94.7638 16.1052,16.72932 c 55.1501,57.28718 106.7056,125.79729 146.1244,193.36781 12.2738,21.0394 32.9767,59.71524 36.2862,67.78742 l 1.8261,4.45408 -136.577,136.57697 -136.577,136.57696 z"
         id="path4"
         sodipodi:nodetypes="ssscccssssssssscsssscssscccs" />
      <path
         style="fill:#f38ba8;fill-opacity:1"
         d="M 0.63210623,1065.9457 C -2.3245968,1023.4507 1.6767036,952.90976 8.0839168,901.33337 49.692522,566.39495 254.2499,272.01182 554.00002,115.69321 675.54199,52.309505 803.5077,15.493888 944.6667,3.2987601 c 28.36148,-2.45022881 104.9979,-3.90720475 124,-2.35743125 L 1082,2.028767 865.51222,218.9336 649.02441,435.83844 l -5.11557,-2.96066 c -2.79844,-1.61961 -12.26635,-6.79512 -21.18273,-11.26477 -49.17617,-24.65125 -105.49588,-39.90861 -162.73494,-43.67766 -22.29951,-1.46837 -36.42282,3.39382 -48.30409,16.62952 -7.78308,8.67031 -11.21395,16.13582 -14.19413,30.88613 -4.98686,24.68231 -6.1577,39.53223 -6.03549,76.54902 0.12722,38.53017 2.93849,74.35052 9.31325,118.66667 3.25471,22.62609 8.0803,51.22126 9.39971,55.70016 0.4115,1.39691 0.0622,2.21651 -0.85235,2 -0.85226,-0.20175 -92.92883,91.40873 -204.61459,203.57884 L 1.9997825,1085.6025 Z"
         id="path3"
         sodipodi:nodetypes="ssssscccsssssssssscs" />
      <path
         d="m 1027.4897,1970.3229 c -6.8052,-7.4462 -20.104,-38.4957 -26.2075,-61.1883 -8.4446,-31.3964 -10.6978,-73.2257 -5.7077,-105.96 2.5735,-16.8819 4.52,-22.3801 8.7187,-24.6271 4.2492,-2.2741 7.9694,-1.6423 28.1111,4.7743 44.2264,14.0892 78.4852,30.5778 105.0979,50.5827 l 8.0806,6.0744 5.0136,-5.7355 c 18.5042,-21.1689 41.9729,-37.0022 69.5167,-46.8999 19.3422,-6.9505 23.8382,-4.574 29.0582,15.3595 10.1063,38.5927 11.8526,77.0438 5.0538,111.2778 -2.6314,13.2501 -6.1986,18.6365 -13.2138,19.9525 -10.4068,1.9524 -56.8753,-17.3054 -80.1384,-33.2113 l -10.8273,-7.4032 -3.5639,6.5481 c -9.4809,17.4195 -30.6482,39.1351 -50.8719,52.1896 -16.7698,10.825 -40.2076,19.6037 -55.2427,20.6914 -9.2809,0.6714 -10.2069,0.497 -12.8774,-2.425 z"
         style="fill:#f38ba8;fill-opacity:1"
         id="path1" />
    </g>
  </g>
</svg>
