<?xml version="1.0" encoding="UTF-8"?>
<!-- Created with Inkscape (http://www.inkscape.org/) -->
<svg width="280" height="313" version="1.1" viewBox="0 0 280 313" xmlns="http://www.w3.org/2000/svg">
 <path d="m127.21 297.99c-51.912-5.3888-96.49-38.222-116.2-85.586-6.8215-16.39-11.112-37.26-10.877-52.9l0.1206-8 0.85693 6.6402c5.9646 46.219 34.769 86.694 76.687 107.76 22.439 11.276 51.206 16.658 75.559 14.135 50.059-5.1861 92.529-34.848 113.69-79.405 5.8234-12.261 8.2271-19.296 10.83-31.7l1.979-9.43 0.071 8.3429c0.04 4.7053-0.8038 12.636-1.9354 18.188-9.9974 49.058-45.355 89.15-92.494 104.88-19.344 6.4543-40.057 8.969-58.288 7.0765zm-4.2119-53.441c-38.234-8.1713-66.303-40.682-68.678-79.545-0.78872-12.906 0.80028-20.322 5.3236-24.845 3.3806-3.3806 3.4845-3.4091 10.634-2.92 4.8104 0.32906 11.893 2.0292 21.22 5.0936 41.932 13.777 56.191 13.766 98-0.0761 11.563-3.8282 15.33-4.6452 21.642-4.6936 8.5837-0.0658 10.364 0.89262 13.528 7.2823 2.696 5.445 2.3967 25.747-0.53973 36.605-8.0402 29.731-30.908 53.102-60.301 61.629-9.4642 2.7456-31.198 3.528-40.829 1.4696zm-55.5-126.5c-1.1-0.45499-3.0629-1.9716-4.362-3.3703-2.1727-2.3393-2.5104-4.2111-4.214-23.359-2.652-29.809-2.653-29.787 1.6039-34.044 3.1707-3.1707 3.9379-3.4729 7.5776-2.9847 3.9802 0.53385 7.2564 2.6519 8.9252 5.7701 0.46501 0.86888 1.8162 12.401 3.0026 25.627 2.0249 22.573 2.0553 24.244 0.49549 27.26-0.96177 1.8599-3.0944 3.8119-5.0631 4.6345-3.8062 1.5903-5.071 1.6645-7.9657 0.46719zm131.4-3.1517c-3.5479-3.798-3.5591-4.2144-0.88181-32.696 2.1071-22.416 2.7946-24.881 7.5417-27.044 4.643-2.1155 8.3735-1.4196 12.039 2.2459 2.6921 2.6921 3.3991 4.2016 3.3955 7.25-0.01 8.109-3.9283 46.356-4.944 48.254-1.7656 3.299-5.2471 5.0961-9.8727 5.0961-3.6062 0-4.8868-0.54649-7.2775-3.1058z" fill="#fef1de"/>
 <path d="m122.83 311.76c-33.066-4.621-61.541-19.153-84.213-42.978-23.142-24.318-36.701-55.928-38.157-88.955l-0.46417-10.528 1.4204 8.5715c5.3555 32.318 18.092 57.584 40.039 79.428 26.715 26.59 61.079 40.75 99.015 40.801 16.956 0.0227 28.464-1.8667 45-7.3882 46.864-15.648 82.189-55.491 92.435-104.26l1.9233-9.154 0.071 6.3429c0.14506 12.959-5.4701 34.117-13.298 50.107-18.908 38.623-54.331 66.555-95.93 75.646-12.69 2.7733-36.501 3.9506-47.842 2.3657zm2.8748-32.048c-47.115-4.9815-88.885-33.811-110.65-76.371-24.332-47.578-18.623-106.55 14.427-149.04 53.176-68.363 154.32-72.884 213.77-9.5552 12.912 13.755 24.269 32.718 30.199 50.422 4.8414 14.456 6.5185 26.068 6.5185 45.133 0 25.313-2.9755 39.127-12.951 60.13-21.046 44.311-63.723 74.26-113.03 79.32-11.421 1.172-16.919 1.1648-28.286-0.037zm38.095-36.838c29.393-8.5273 52.261-31.898 60.301-61.629 2.9364-10.858 3.2358-31.16 0.53973-36.605-3.1638-6.3897-4.9442-7.3481-13.528-7.2823-6.3118 0.0484-10.079 0.86549-21.642 4.6936-41.809 13.842-56.068 13.853-98 0.0761-9.3271-3.0644-16.41-4.7645-21.22-5.0936-7.1498-0.4891-7.2538-0.46054-10.634 2.92-4.5233 4.5233-6.1123 11.939-5.3236 24.845 2.375 38.863 30.444 71.374 68.678 79.545 9.631 2.0583 31.365 1.276 40.829-1.4696zm-88.364-125.5c1.9688-0.8226 4.1014-2.7747 5.0631-4.6345 1.5598-3.0163 1.5294-4.6872-0.49549-27.26-1.1864-13.226-2.5376-24.758-3.0026-25.627-1.6688-3.1182-4.945-5.2362-8.9252-5.7701-3.6397-0.48819-4.4069-0.186-7.5776 2.9847-4.2569 4.2569-4.2558 4.2356-1.6039 34.044 1.7035 19.148 2.0412 21.02 4.214 23.359 4.0577 4.3687 7.1034 5.086 12.328 2.9031zm137.3-1.1301c1.2181-0.85321 2.6949-2.4484 3.2817-3.5448 1.0158-1.898 4.9345-40.145 4.944-48.254 6e-3 -5.0224-5.1981-10.65-9.8484-10.65-4.0474 0-7.7747 1.7828-9.6221 4.6023-1.4231 2.1719-5.4945 38.367-5.5164 49.042-0.0125 6.0819 4.1848 10.356 10.17 10.356 2.407 0 5.3729-0.69808 6.5911-1.5513z" fill="#2d2424"/>
</svg>
